<?xml version="1.0" encoding="utf-8"?>
<!-- Generator: Adobe Illustrator 20.1.0, SVG Export Plug-In . SVG Version: 6.00 Build 0)  -->
<svg version="1.1" xmlns="http://www.w3.org/2000/svg" xmlns:xlink="http://www.w3.org/1999/xlink" x="0px" y="0px"
	 viewBox="0 0 2000 2000" style="enable-background:new 0 0 2000 2000;" xml:space="preserve">
<style type="text/css">
	.st0{display:none;fill:#252525;}
	.st1{fill:#377DC1;}
	.st2{display:none;}
	.st3{display:inline;}
	.st4{fill:#FFFFFF;}
	.st5{fill:#0D4E91;}
	.st6{display:inline;fill:#FFFFFF;}
</style>
<g id="background">
	<circle class="st0" cx="1000" cy="1000" r="900"/>
	<rect class="st1" width="2000" height="2000"/>
</g>
<g id="routes" class="st2">
	<g class="st3">
		<path class="st4" d="M1000,632.6L1000,632.6c-90.3,0-163.4,73.2-163.4,163.4c0,1.5,0,3,0.1,4.5c0.6,13.7,5.1,56.6,38.3,100.7
			c5.5,7.4,10.2,13.4,14.1,18.6c19.6,25.4,22.9,28.3,39.1,53.3c4.4,6.8,9.7,15.1,16.5,26c37.2,59.3,37.2,126.3,37.2,126.3
			c0,10,8.1,18.1,18.1,18.2h0.1c10,0,18.1-8.2,18.1-18.2c0,0,0-67,37.2-126.3c6.8-10.9,12.1-19.3,16.5-26c16.2-25,19.5-28,39.1-53.3
			c4-5.1,8.6-11.2,14.1-18.6c33.2-44.1,37.7-87,38.3-100.7c0-1.5,0.1-3,0.1-4.5C1163.3,705.8,1090.2,632.7,1000,632.6z M1000,723.4
			c40.1,0,72.6,32.5,72.6,72.6c0,40.1-32.5,72.6-72.6,72.6c-40.1,0-72.6-32.5-72.6-72.6C927.3,755.9,959.9,723.4,1000,723.4z"/>
		<path class="st4" d="M1380.6,1314l-125.8-340.9l-19.7-53.3h-106.8c-23.1,30.4-29.2,36.8-40.5,53.3h110.1l125.8,340.9H676.5
			l125.8-340.9h109.7c-11.4-16.6-17.5-23-40.5-53.3H765.2l-19.7,53.3L619.7,1314l-19.7,53.3h800v-0.8L1380.6,1314z"/>
	</g>
</g>
<g id="achievement">
	<g>
		<path class="st5" d="M1140,1772.4c-26.5,10.5-54,17.3-81.7,23.8c-8.6-1.4-16.7,0.7-24.7,3.4c-20.5,0.2-41.1,0.3-61.6,0.5
			c-6.4-1.1-12.8-2.1-19.2-3.2c-16.9-3.1-33.8-6.1-50.7-9.2c-4.6-4-10.3-4.9-16.1-5.2c-13.7-5.5-27.5-10.9-41.2-16.4
			c-1.7-3.9-5.6-3.7-8.9-4.7c-13.4-7.9-26.7-15.8-40.1-23.7c-5.6-4.1-11.2-8.3-16.8-12.4c-9.6-8.1-19.1-16.3-28.7-24.4
			c-4.2-4.2-8.3-8.3-12.5-12.5c-8.2-9.5-16.4-19.1-24.6-28.6c-4.1-5.6-8.2-11.1-12.3-16.7c-7.9-13.1-15.8-26.2-23.7-39.3
			c-0.9-2.1-1.8-4.1-2.7-6.2c-7.2-17.7-14.3-35.4-21.5-53.1c-0.7-2.7-1.5-5.4-2.2-8.1c-3.6-16.5-7.2-32.9-10.8-49.4
			c-0.5-6.8-1.1-13.7-1.6-20.5c0.1-20.5,0.1-41,0.2-61.6c0.5-6.8,1-13.6,1.6-20.4c8-28.8,15.9-57.7,23.9-86.5
			c5.8-12.1,11.7-24.3,17.5-36.4c35.4-60,83.3-107.6,143-143.5c12.2-5.8,24.4-11.6,36.6-17.4c21.4-6.3,42.5-14.2,64.3-18.5
			c13.8-2.7,19.9-6.2,18.6-21.5c-1.3-15.6,5.3-29.1,19.1-38.2c4.9-3.3,14.4-1.2,13.3-12c-1-9.9-8.7-10.7-15.5-13.2
			c-5.9-3.5-11.8-7.1-17.7-10.6c-3.1-22.9,11.8-41.6,14.5-63.1c2.8-9.2,5.6-18.4,8.4-27.7c10.9-22,12.7-44.1,0.9-66.4
			c-4.1-13.4-8.1-26.9-13.6-44.9c-7.4,25.2-15.7,44.4-18.5,65.3c-11.9,29.4-20.3,59.9-28.3,90.4c-7.6,3.8,1.5,23.9-16.8,17.1
			c-13.1-8.3-26.1-16.7-40.8-22c-3.2-4.1-7.5-6.3-12.6-7.3c-13.5-7.6-27.1-15.1-40.6-22.7c-2.1-1-4.2-2-6.3-3.1
			c-13.7-9.4-27.9-18-43.5-24c-1.6-3.9-5.4-4.1-8.7-5c-14-9.6-28.7-18.1-44.5-24.5c-1.3-3.7-4.8-3.7-7.8-4.3
			c-3.8-2.5-7.4-6-11.6-7.5c-14.4-4.9-18.8-14.1-13.5-28.2c5.2-8.8,7.9-18.3,8.6-28.5c11.6-29.6,20.6-59.9,28.1-90.7
			c4.8-9,8.2-18.4,8.5-28.7c12-29.4,20.3-59.9,28.3-90.5c4.6-9.1,7.9-18.5,8.4-28.8c12-29.4,20-59.9,28.4-90.4
			c4-9.2,7.8-18.6,8.3-28.8c9.3-29.2,18.7-58.3,28-87.5c2.6-6.9,3.2-13.6-1.8-19.7c-4.4-20.7-10.9-40.7-20.2-63.8
			c-10.7,36.3-20.3,68.7-29.9,101.1c-3.8,9.3-7.7,18.6-8.3,28.8c-9.3,29.1-18.5,58.2-27.8,87.2c-3,10.7-6,21.3-9,32
			c-9,28.9-17.9,57.7-26.9,86.6c-3.3,10.9-6.6,21.8-10,32.6c-9.9,28.4-19.5,57-26.1,86.4c-5.1,8.7-7.7,18.2-8.6,28.2
			c-5.6,17.1-12.4,33.9-16.4,51.3c-3.9,16.8-10.7,19.1-23.8,9.3c-2-1.5-4.9-2-7.3-2.9c-3.7-2.7-7.4-5.3-11.1-8
			c7.8-27.4,15.5-54.8,23.3-82.2c5.2-8.8,7.9-18.3,8.6-28.4c11.3-29.6,20.6-59.9,27.9-90.8c4.7-9,8.3-18.4,8.4-28.8
			c12-29.3,20.2-59.9,28.3-90.4c4.4-9.1,7.9-18.5,8.3-28.8c11.9-28.4,18.7-58.3,28-87.6c2.9-10.6,5.8-21.1,8.8-31.7
			c9-28.9,17.9-57.7,26.9-86.6c2.8-8.9,5.5-17.8,8.3-26.7c-0.4-0.4-0.8-0.8-1.1-1.1c0.4,0.4,0.8,0.7,1.2,1.1
			c6.3-0.7,12.5-1.4,18.8-2.1c15.5,0.5,31,1.1,46.5,1.6c3,4.7,1.3,11.5,6.5,15.3c1.7,17.2,9.1,32.7,13.8,49.1c2,5.7,4.1,11.3,6.1,17
			c3.4,18.2,9.2,35.7,16,52.9c1.2,4.9,0.2,10.6,4.6,14.5c2,13.8,6.7,26.9,11.9,39.7c1.2,5.5,0.6,11.6,5.5,15.8
			c1.9,15.7,7.9,30.3,12.9,45.1c1.6,7.2,2.3,14.7,7.2,20.8c3,18,8.6,35.2,15.8,51.9c0.8,5.2,0.1,10.9,4.6,14.9
			c2,14,6.2,27.4,12.4,40.1c4.7,22.6,11.4,44.6,20,66.1c0.8,5.6,0.7,11.5,5.2,16c2,15.7,8,30.3,13,45.1c1.8,5.7,3.5,11.4,5.3,17.1
			c4.8,14.9,9.6,29.8,14.4,44.8c-0.8,6.2,1.9,11.3,4.8,16.4c3.6,17,8.1,33.7,15.5,49.5c0.1,4.5-0.5,9.2,3.9,12.3
			c2.1,17.1,9,32.8,14,49.1c2,5.7,4,11.3,6,17c2.9,15.4,7.4,30.4,13.7,44.8c-1.1,6.3,2.8,11.1,4.7,16.5c0.7,5.8,2.9,11.8-5,15.2
			c-6.9,2.9-13.3,7-19.7,10.8c-13.2,7.9-15.1,15.6,1.1,22c12.1,4.8,16.2,15.9,21.4,26.1c0.6,2.7,1.2,5.4,1.8,8
			c-3.3,15.3-1.6,26.5,18.2,26.6c7.3,0,14.5,3.1,21.8,4.8c5.8,1.7,11.5,3.4,17.3,5.1c15,5.9,30,11.9,44.9,17.8c3.3,3.9,7.7,6,12.6,7
			c12.2,7.5,24.3,14.9,36.5,22.4c3.9,3,7.8,6.1,11.7,9.1c11.1,9.5,22.2,18.9,33.4,28.4c2.3,2.3,4.5,4.6,6.8,6.9
			c9.1,10.7,18.3,21.5,27.4,32.2c3.2,4.3,6.4,8.7,9.6,13c8.6,14.1,17.3,28.1,25.9,42.2c1.9,4.5,3.7,8.9,5.6,13.4
			c6.1,15.5,12.2,31.1,18.3,46.6c0.8,2.8,1.5,5.5,2.3,8.3c3.5,16.5,6.9,33,10.4,49.5c0.6,6.8,1.3,13.6,1.9,20.4
			c-0.1,20.5-0.2,41.1-0.4,61.6c-1.2,8.3-2.4,16.5-3.6,24.8c-5.8,28.4-13.4,56.2-24.3,83.2c-6.3,13.2-12.6,26.4-18.8,39.6
			c-34.5,55.4-79.3,100.6-135.1,134.5C1167.3,1759.3,1153.7,1765.8,1140,1772.4z M769.8,1652c4.4,6.8,10,12.5,16.9,16.8
			c8.1,10,18.1,17.5,29.2,23.9c5.5,3.8,11,7.6,16.5,11.4c12.7,8.9,25.9,17.1,41.1,21.3c3.2,3.7,7.3,5,12,4.9
			c15.4,8.6,32.3,12.7,49.5,15.3c5.6,1.2,11.1,2.5,16.7,3.7c19,1.5,37.9,6.3,57.2,3.2c8.5,1.8,16.7,0.2,24.9-2.2
			c28.8-1.1,56.4-7.5,82.3-20.4c15.1-3.1,28.2-10.5,40.9-18.6c51.6-28.8,92.1-68.6,119.5-121.3c8.3-11,13.7-23.4,17-36.7
			c12.8-26.1,19.4-53.7,20.5-82.6c3.9-7.9,3.3-16.3,2.6-24.7c2.4-19.4-0.5-38.4-3.8-57.4c1-6-0.6-11.5-3.8-16.5
			c-0.9-17.9-7.3-34.2-14-50.4c-1.8-3.9-1.2-8.9-5.7-11.4c-4.2-15.1-11.7-28.5-21.2-40.9c-2.4-6.8-6.2-12.7-11.9-17.3
			c-7.1-13.4-17.3-24.2-28.5-34.2c-1.9-4.3-5-7.4-9.3-9.4c-9.4-10-19-19.6-31.4-25.9c-2.9-4.4-6.9-7.2-12.1-8.3
			c-13.6-11.8-29.2-19.8-46.2-25.6c-1.8-3-4.7-3.1-7.7-3c-16.8-9.7-35-14.7-54.2-16.7c-4.8-4.6-10.8-3.7-16.6-3.4
			c-18.8-6.2-38.2-4.7-57.5-3.6c-8.4,0.1-16.7,0.3-25.1,0.4c-26.7,3.5-53.4,6.9-77.8,19.6c-13.5,2.7-25.9,8.2-37.1,16.2
			c-58.3,29.5-102.1,73.4-131.5,131.8c-7.8,11.3-13.6,23.5-16.2,37c-12.3,24.8-16.2,51.7-19.1,78.8c-2.5,7.9-2.1,15.9-1,24
			c-2.1,19.4-0.3,38.5,3.9,57.4c-1,6,0.4,11.5,3.9,16.5c0.5,16.1,6.3,30.7,12.6,45.2c0.9,6.2,2.8,12,7.5,16.6
			c3.9,15.3,12.2,28.4,21.4,41c2.5,6.5,6.3,12.1,11.6,16.7C752.2,1634,759.7,1644,769.8,1652z M1001,1074c8.3,0.5,17.1,0.9,25.9,1.5
			c5.6,0.4,9.3-0.8,9.1-7.4c-0.2-8.8,0.8-18.2-6.5-24.7c-5.7-5-8,1.8-11,4.7c-11.2,10.7-24.1,11.9-34.4,1.2
			c-14.1-14.8-16-3.4-18.6,7c-3.3,13.5-1.1,22.9,16.6,18.9C988,1073.8,994.3,1074.4,1001,1074z"/>
		<path class="st5" d="M1159,217.5c4.8,14.9,9.5,29.8,14.3,44.7c-1,6.2,2.2,11.3,4.8,16.5c3.9,16.9,8.1,33.7,15.6,49.4
			c-0.1,4.5-0.5,9.2,3.9,12.3c1.9,17.1,9.1,32.8,13.9,49.1c2,5.6,4.1,11.3,6.1,16.9c2.7,15.5,7.3,30.4,13.6,44.8
			c0.2,8.2,3.3,15.5,7.1,22.6c2.8,14.9,6.9,29.4,13.4,43.2c-0.5,4.7,0.1,9.1,4,12.4c1.9,15.7,7.8,30.3,12.9,45.1
			c1.6,7.2,2.4,14.7,7.2,20.8c3,18,8.7,35.1,15.8,51.8c0.8,5.2,0.1,10.9,4.7,15c2,14,6.2,27.4,12.4,40.1c6,20.5,11.9,40.9,17.9,61.4
			c2,7,2.5,14.6,7.4,20.6c1.5,6.6,1.7,13.8,4.6,19.6c9,17.9,2.6,26.6-14.4,35.4c-38.6,19.9-75.8,42.5-113.6,63.9
			c-16.1,6.4-31,14.9-45.2,24.7c-15.5,8.2-32,15.1-46.3,25.1c-13.9,9.6-19.1,4.1-23.3-8.5c0.2-4.6,0.4-9.2-3.9-12.3
			c-2-17.6-9.2-33.7-14.3-50.4c-2.2-5.1-1-11.4-5.7-15.6c-2.4-15.6-7.5-30.4-13.4-44.9c-0.5-8.1-3.2-15.4-7.1-22.4
			c-2.6-15-7-29.5-13.3-43.4c0.7-4.8-0.4-9-4.1-12.4c-1.9-15.7-7.9-30.3-12.9-45.2c-1.5-7.2-2.5-14.6-7.3-20.7
			c-2-15.7-7.7-30.4-13.2-45.1c-1.7-5.7-3.3-11.4-5-17.1c-5.8-20.6-10.8-41.4-19.6-61c-2.8-17.2-8.2-33.7-15.1-49.7
			c-0.3-5.8-0.8-11.5-5-16c-1.9-15.8-8.2-30.2-13-45.2c-1.8-5.7-3.6-11.4-5.4-17.1c-4.8-14.9-9.5-29.8-14.3-44.7
			c1-6.2-2.2-11.3-4.8-16.4c-3.9-16.9-8.1-33.7-15.6-49.4c0-4.5,0.4-9.2-3.9-12.3c-1.9-17.1-9.1-32.8-13.9-49.1
			c-2-5.6-4.1-11.2-6.1-16.8c-2.8-11.5-5.6-23.1-9.1-37.2c17.2,0,33.1,0,49,0c6.9,0.1,13.7,0.1,20.6,0.2c20.5-0.1,41.1-0.1,61.6-0.2
			c6.9,0.1,13.7,0.1,20.6,0.2c20.5-0.1,41.1-0.1,61.6-0.2c6.9,0.1,13.7,0.1,20.6,0.2c16.2,0.2,32.4,0.4,48.6,0.6
			C1154.4,206.4,1156.7,211.9,1159,217.5z"/>
		<path class="st5" d="M1420.8,776.1c-0.5,19.2-20.8,16.2-29.4,26.3c-2.7-0.6-5.4-1.2-8-1.8c-2.1-15.7-7.9-30.3-13.2-45
			c-1.7-5.7-3.3-11.4-5-17.1c-6.5-20.3-13.1-40.7-19.6-61c-2.9-17.2-8.2-33.7-15.1-49.7c-0.5-4.3,0.2-9-3.7-12.3
			c-4.7-16.3-9.5-32.6-14.2-48.9c-1.8-5.7-3.6-11.4-5.4-17c-4.8-14.9-9.5-29.8-14.3-44.7c0.9-6.2-2.2-11.3-4.8-16.5
			c-3.9-16.9-8.1-33.7-15.6-49.4c0-4.5,0.5-9.2-3.9-12.3c-1.9-17.1-9.2-32.8-13.9-49.1c-2-5.6-4.1-11.3-6.1-16.9
			c-3.4-18.2-9.3-35.7-16-52.9c-1.3-4.9-0.2-10.5-4.6-14.5c-2.1-13.8-6.7-26.9-11.9-39.7c-1.2-5.5-0.6-11.7-5.5-15.9
			c-2.7-11.6-5.4-23.3-8.4-36.7c14.5,0,27.9,0,41.2,0c1.6,2.6,3.1,5.3,4.7,7.9c2.9,17.2,8.3,33.7,15.1,49.7
			c0.5,4.3-0.1,8.9,3.7,12.3c4.8,16.3,9.6,32.6,14.3,48.9c1.8,5.7,3.5,11.4,5.3,17c5.7,18.2,11.4,36.5,17.1,54.7
			c0.7,2.2,1.5,4.3,2.2,6.5c4.4,15.4,8.9,30.9,13.3,46.3c1.9,5.2,3.9,10.3,5.8,15.5c4.7,16.3,9.4,32.7,14.1,49
			c1.8,5.7,3.6,11.4,5.5,17c5.6,18,11.1,36,16.7,54c0.8,2.4,1.5,4.8,2.3,7.2c4.5,15.4,9,30.8,13.5,46.2c2.2,5,0.9,11.4,5.8,15.4
			c2,17.2,9,32.9,13.9,49.3c2,5.6,3.9,11.3,5.9,16.9c3.8,18.3,9.3,36.1,16.2,53.4C1419.3,770.8,1420,773.5,1420.8,776.1z"/>
		<path class="st5" d="M771.7,1591.3c-0.5-2.5-0.8-5.1-4-5.8c-7.2-13.6-14.3-27.2-21.5-40.8c-2-5.7-4-11.3-6-17
			c-3.8-14.8-7.6-29.7-11.3-44.5c-1.3-6.9-2.5-13.8-3.8-20.6c0.6-20.6,1.2-41.3,1.8-61.9c1.9-9.5,3.8-19.1,5.7-28.6
			c29.8-105.2,97.2-172.8,202.3-202.8c9.6-2.1,19.2-4.2,28.8-6.3c20.6-0.3,41.1-0.7,61.7-1c6.9,1.1,13.8,2.3,20.7,3.4
			c15,3.5,29.9,6.9,44.9,10.4c5.6,2.3,11.1,4.7,16.7,7c11.8,5.9,23.7,11.8,35.5,17.7c5.9,4,11.8,8,17.8,11.9
			c9.7,8.1,19.4,16.1,29.1,24.2c4.1,4.1,8.1,8.2,12.2,12.2c9.4,11.6,18.7,23.1,28.1,34.7c0.2,3,0.9,5.7,4.3,6.7
			c8,16,15.9,32.1,23.9,48.1c1,3.3,2,6.6,3,9.9c3.8,16.2,7.6,32.5,11.3,48.7c1.1,6.9,2.3,13.7,3.4,20.6c-1.1,19.6-2.2,39.1-3.2,58.7
			c-1.5,9.2-3.1,18.5-4.6,27.7c-22.5,75.9-65.9,135.5-135.9,174.5c-21,11.7-43.8,18.5-66,27c-8.7-1.4-16.5,2.6-24.7,4.3
			c-20.5,1-41,2-61.4,3c-6.6-3.6-13.6-3.6-20.8-3c-14.5-3.2-28.9-6.4-43.4-9.7c-7.3-2.7-14.6-5.4-21.9-8.2
			c-10.8-5.3-21.5-10.6-32.3-15.9c-5.9-3.8-11.7-7.6-17.6-11.4c-12.2-9.9-24.5-19.8-36.7-29.7c-2.7-2.8-5.4-5.6-8.1-8.4
			C790.3,1614.6,781,1603,771.7,1591.3z"/>
	</g>
</g>
<g id="menu" class="st2">
	<g class="st3">
		<path class="st4" d="M1270,890H730c-16.6,0-30-13.4-30-30l0,0c0-16.6,13.4-30,30-30h540c16.6,0,30,13.4,30,30l0,0
			C1300,876.6,1286.6,890,1270,890z"/>
		<path class="st4" d="M1270,1030H730c-16.6,0-30-13.4-30-30v0c0-16.6,13.4-30,30-30h540c16.6,0,30,13.4,30,30v0
			C1300,1016.6,1286.6,1030,1270,1030z"/>
		<path class="st4" d="M1270,1170H730c-16.6,0-30-13.4-30-30l0,0c0-16.6,13.4-30,30-30h540c16.6,0,30,13.4,30,30l0,0
			C1300,1156.6,1286.6,1170,1270,1170z"/>
	</g>
</g>
<g id="profile" class="st2">
	<g class="st3">
		<g>
			<circle class="st4" cx="1000" cy="833.6" r="103.7"/>
			<circle class="st4" cx="1000" cy="833.6" r="103.7"/>
			<circle class="st4" cx="1000" cy="833.6" r="103.7"/>
			<circle class="st4" cx="1000" cy="833.6" r="103.7"/>
			<path class="st4" d="M1258.6,1240.5c-78.2,19-165.9,29.6-258.6,29.6s-180.5-10.6-258.6-29.6c0.7-2.3,1.3-4.6,2-7
				c4.8-16.6,10-32.6,15.5-48.1c28.1-78.7,65.7-143,109.3-186.4c16.5-16.4,33.9-29.9,51.9-40c0.2-0.1,0.4-0.2,0.7-0.4
				c1.7,1.1,3.3,2.1,5.1,3.1c21.8,12.7,47.2,19.9,74.2,19.9s52.4-7.2,74.2-19.9c1.7-1,3.4-2,5.1-3.1c0.2,0.1,0.4,0.2,0.7,0.4
				c18.1,10.1,35.4,23.5,51.9,40c43.6,43.4,81.1,107.8,109.3,186.4c5.5,15.5,10.7,31.5,15.5,48.1
				C1257.3,1235.9,1258,1238.2,1258.6,1240.5z"/>
		</g>
		<g>
			<circle class="st4" cx="777.8" cy="885.6" r="71.3"/>
			<circle class="st4" cx="777.8" cy="885.6" r="71.3"/>
			<circle class="st4" cx="777.8" cy="885.6" r="71.3"/>
			<circle class="st4" cx="777.8" cy="885.6" r="71.3"/>
			<path class="st4" d="M722.3,1183.8c-43.3-2.9-84.4-9.3-122.3-18.5c0.5-1.6,0.9-3.2,1.4-4.8c26.4-91.3,70-160.1,121.9-188.9
				c15.8,10,34.5,15.8,54.5,15.8s38.7-5.8,54.5-15.8c7.1,3.9,14.1,8.6,20.9,14.1C802.2,1031,757.5,1099.3,722.3,1183.8z"/>
			<path class="st4" d="M955.6,1165.3c-53.7,13.1-114,20.4-177.8,20.4c-6.3,0-12.7-0.1-18.9-0.2c28.1-78.7,65.7-143,109.3-186.4
				c36,35.7,66,92.1,86.1,161.5C954.7,1162.1,955.1,1163.7,955.6,1165.3z"/>
		</g>
		<g>
			<circle class="st4" cx="1222.2" cy="885.6" r="71.3"/>
			<circle class="st4" cx="1222.2" cy="885.6" r="71.3"/>
			<circle class="st4" cx="1222.2" cy="885.6" r="71.3"/>
			<circle class="st4" cx="1222.2" cy="885.6" r="71.3"/>
			<path class="st4" d="M1131.9,999c43.6,43.4,81.1,107.8,109.3,186.4c-6.3,0.1-12.6,0.2-18.9,0.2c-63.7,0-124.1-7.3-177.8-20.4
				c0.5-1.6,0.9-3.2,1.4-4.8C1065.9,1091.2,1095.8,1034.8,1131.9,999z"/>
			<path class="st4" d="M1400,1165.3c-37.9,9.2-79,15.5-122.3,18.5c-35.2-84.6-79.9-152.8-130.8-198.1c6.8-5.4,13.7-10.1,20.9-14.1
				c15.8,10,34.5,15.8,54.5,15.8c20,0,38.7-5.8,54.5-15.8c51.9,28.8,95.5,97.7,121.9,188.9C1399.1,1162.1,1399.5,1163.7,1400,1165.3
				z"/>
		</g>
	</g>
</g>
<g id="profile_x5F_picture" class="st2">
	<g class="st3">
		<g>
			<circle class="st1" cx="1000" cy="833.6" r="103.7"/>
			<circle class="st1" cx="1000" cy="833.6" r="103.7"/>
			<circle class="st1" cx="1000" cy="833.6" r="103.7"/>
			<circle class="st1" cx="1000" cy="833.6" r="103.7"/>
			<path class="st1" d="M1258.6,1240.5c-78.2,19-165.9,29.6-258.6,29.6s-180.5-10.6-258.6-29.6c0.7-2.3,1.3-4.6,2-7
				c4.8-16.6,10-32.6,15.5-48.1c28.1-78.7,65.7-143,109.3-186.4c16.5-16.4,33.9-29.9,51.9-40c0.2-0.1,0.4-0.2,0.7-0.4
				c1.7,1.1,3.3,2.1,5.1,3.1c21.8,12.7,47.2,19.9,74.2,19.9s52.4-7.2,74.2-19.9c1.7-1,3.4-2,5.1-3.1c0.2,0.1,0.4,0.2,0.7,0.4
				c18.1,10.1,35.4,23.5,51.9,40c43.6,43.4,81.1,107.8,109.3,186.4c5.5,15.5,10.7,31.5,15.5,48.1
				C1257.3,1235.9,1258,1238.2,1258.6,1240.5z"/>
		</g>
	</g>
</g>
<g id="close" class="st2">
	<path class="st6" d="M1337.6,999c0,188.3-148.8,338.1-337.1,338.1c-187.3,0-338.1-149.8-338.1-338.1c0-186.2,150.8-336,338.1-336
		C1188.8,662.9,1337.6,812.7,1337.6,999z M1174.3,894.9l-70.7-69.7l-103,104L895.4,824.2l-69.7,70.7l105.1,104l-105.1,104l69.7,70.7
		l105.1-105.1l103,104l70.7-69.7l-104-104L1174.3,894.9z"/>
</g>
</svg>
