<?xml version="1.0" encoding="utf-8"?>
<!-- Generator: Adobe Illustrator 20.1.0, SVG Export Plug-In . SVG Version: 6.00 Build 0)  -->
<svg version="1.1" id="Layer_1" xmlns="http://www.w3.org/2000/svg" xmlns:xlink="http://www.w3.org/1999/xlink" x="0px" y="0px"
	 viewBox="0 0 2000 2000" style="enable-background:new 0 0 2000 2000;" xml:space="preserve">
<style type="text/css">
	.st0{display:none;}
	.st1{display:inline;}
	.st2{fill:#114C93;}
	.st3{fill:#2160AC;}
	.st4{fill:#367DC1;}
	.st5{fill:#B32024;}
	.st6{fill:#C9202E;}
	.st7{fill:#E42E28;}
	.st8{fill:#5C2A7B;}
	.st9{fill:#642C8C;}
	.st10{fill:#79469B;}
	.st11{fill:#F47820;}
	.st12{fill:#F58225;}
	.st13{fill:#F68931;}
	.st14{fill:#252525;}
	.st15{fill:#353535;}
	.st16{fill:#454545;}
	.st17{display:inline;fill:#FFFFFF;}
	.st18{fill:#FFFFFF;}
</style>
<g id="blue_1_" class="st0">
	<g class="st1">
		<path class="st2" d="M100,1000c0,497.1,402.9,900,900,900v-250c-359,0-650-291-650-650s291-650,650-650V100
			C502.9,100,100,502.9,100,1000z"/>
		<path class="st3" d="M1000,100v250c359,0,650,291,650,650s-291,650-650,650v250c497.1,0,900-402.9,900-900S1497.1,100,1000,100z"
			/>
		<circle class="st4" cx="1000" cy="1000" r="700"/>
	</g>
</g>
<g id="red" class="st0">
	<g class="st1">
		<path class="st5" d="M100,1000c0,497.1,402.9,900,900,900v-250c-359,0-650-291-650-650s291-650,650-650V100
			C502.9,100,100,502.9,100,1000z"/>
		<path class="st6" d="M1000,100v250c359,0,650,291,650,650s-291,650-650,650v250c497.1,0,900-402.9,900-900S1497.1,100,1000,100z"
			/>
		<circle class="st7" cx="1000" cy="1000" r="700"/>
	</g>
</g>
<g id="purple" class="st0">
	<g class="st1">
		<path class="st8" d="M100,1000c0,497.1,402.9,900,900,900v-250c-359,0-650-291-650-650s291-650,650-650V100
			C502.9,100,100,502.9,100,1000z"/>
		<path class="st9" d="M1000,100v250c359,0,650,291,650,650s-291,650-650,650v250c497.1,0,900-402.9,900-900S1497.1,100,1000,100z"
			/>
		<circle class="st10" cx="1000" cy="1000" r="700"/>
	</g>
</g>
<g id="restroom_1_" class="st0">
	<g class="st1">
		<path class="st11" d="M100,1000c0,497.1,402.9,900,900,900v-250c-359,0-650-291-650-650s291-650,650-650V100
			C502.9,100,100,502.9,100,1000z"/>
		<path class="st12" d="M1000,100v250c359,0,650,291,650,650s-291,650-650,650v250c497.1,0,900-402.9,900-900S1497.1,100,1000,100z"
			/>
		<circle class="st13" cx="1000" cy="1000" r="700"/>
	</g>
</g>
<g id="grey">
	<g id="red_1_">
		<g>
			<path class="st14" d="M100,1000c0,497.1,402.9,900,900,900v-250c-359,0-650-291-650-650s291-650,650-650V100
				C502.9,100,100,502.9,100,1000z"/>
			<path class="st15" d="M1000,100v250c359,0,650,291,650,650s-291,650-650,650v250c497.1,0,900-402.9,900-900S1497.1,100,1000,100z
				"/>
			<circle class="st16" cx="1000" cy="1000" r="700"/>
		</g>
	</g>
</g>
<g id="dining" class="st0">
	<path class="st17" d="M988.7,970c29.8-18.9,42.3-35.9,33.5-67.6c-10.9-39.3,1.7-77.1,29.5-106.2c58.8-61.6,119.3-121.6,180.4-180.9
		c6.2-6,21.5-2.7,32.5-3.7c-1.8,10.8,0.3,25.3-6,31.8c-42.3,44.3-86.3,86.9-129.8,130c-5.4,5.4-12.2,10-15.9,16.4
		c-5.4,9.2-8.7,19.7-12.9,29.7c9.3-4.2,20.7-6.3,27.7-12.9c46.2-44.5,91.4-90,136.9-135.1c5.4-5.4,10.2-13.4,16.7-15.2
		c8.8-2.5,18.9-0.1,28.5,0.2c-0.4,9.5,2.7,21.8-2,27.8c-12.9,16.5-29.1,30.3-44,45.1c-36.6,36.4-73.6,72.6-109.6,109.6
		c-5.6,5.7-6.9,15.6-10.2,23.6c8.7-2.4,20.1-2.1,25.8-7.6c46.9-45.1,92.8-91.3,138.9-137.1c4.8-4.7,8.7-11.7,14.4-13.6
		c9.5-3.2,20.2-3.1,30.3-4.5c-0.8,10.8,2.7,25.4-3,31.9c-23.3,26.5-49.5,50.6-74.6,75.5c-26.5,26.3-53.3,52.3-79,79.3
		c-4.8,5-5,14.3-7.4,21.5c8.1-2,18.7-1.3,23.8-6.3c46.9-45.1,92.8-91.2,139-137.1c5.4-5.4,10-13.1,16.6-15.6c9.3-3.4,20-3,30.1-4.2
		c-0.3,10.3,3.6,24.8-1.7,30.2c-61.9,62.6-124,125-188.6,184.7c-28.4,26.3-65.1,34.1-104.7,26.1c-36.7-7.4-37-6.2-62.7,30.6
		c62,51.6,124.3,103.5,186.7,155.3c31.7,26.3,65.4,50.3,94.7,79c17.7,17.4,31.5,40.4,41.9,63.2c10.4,22.7,2.9,45.8-16.8,61.8
		c-20.9,16.9-44.8,15.8-67.2,3.1c-10.5-6-19.5-15.4-27.8-24.5c-78.8-86.1-157.4-172.5-236-258.8c-7.6-8.4-15.5-16.5-29.4-31.4
		c-8.3,11.7-14.6,22.4-22.7,31.5c-77.7,85.8-155.8,171.3-233.8,256.9c-3.2,3.5-6.2,7.3-9.6,10.7c-25.9,25.6-59,31.6-83,15.1
		c-22.4-15.5-30.6-52.7-13.3-83.2c12-21.1,28.7-40.9,47.2-56.7c77.3-65.7,156.1-129.5,234.2-194.2c10.1-8.4,19.4-17.9,29-26.9
		c-0.9-3.3-1.8-6.6-2.8-9.9c-16,2.9-33,3.3-47.9,9c-49.2,18.8-50.7,21-84.6-19.2c-54.9-64.7-108.7-130.6-160-198.3
		c-28.1-37.1-43.2-80.9-39.4-129.1c0.7-8.5,1.5-17.2,3.7-25.4c8.4-31.6,25.1-36.4,48.6-13.3c52.6,51.6,105.1,103.4,156.9,155.7
		C869.7,847.3,928.8,908.6,988.7,970z"/>
</g>
<g id="man" class="st0">
	<g class="st1">
		<path class="st18" d="M1130.5,715.6c12.7,2.8,24.5,7.5,33.4,17.6c27.4,31,13.9,77.6-26.2,88.1c-18.6,4.9-37.7,7.6-56.6,11.1
			c-42.4,7.8-84.9,15.4-127.3,23.1c-1.7,0.3-3.4,0.9-5.9,1.5c52.7,95.1,105.2,189.8,157.8,284.8c-26.3,8.6-52,8-77.2-1.5
			c-17.4-6.5-34.6-13.4-53.6-14.1c-17.3-0.6-34,2.1-49.9,8.7c-19.6,8.2-39.6,13.9-61.1,12.7c-15.9-0.9-30.9-5.2-45.4-11.4
			c-18-7.7-36.8-11.9-56.3-9.6c-12.4,1.5-24.9,4.3-36.6,8.6c-19.5,7.3-38.9,14.1-59.9,12.1c-12-1.1-24-3.9-35.6-7.1
			c-9.5-2.6-18.6-6.9-28.6-10.8c92.6-50.9,184.8-101.5,277.4-152.4c-1.3-2.5-2.3-4.7-3.5-6.7c-22.8-41.2-45.8-82.4-68.5-123.6
			c-11.6-21.1-12.9-42.1,2.5-62.1c7.9-10.3,18.4-16,31.2-18.3c90.8-16.4,181.5-32.9,272.2-49.4c1-0.2,2-0.8,3-1.2
			C1120.8,715.6,1125.6,715.6,1130.5,715.6z"/>
		<path class="st18" d="M601.4,1211.3c21.7-1.1,41.7-8.4,62-15.7c28.1-10.2,56.6-8.7,84.2,3.2c29.3,12.6,59.2,16,89.9,6
			c8.6-2.8,16.9-6.7,25.5-9.5c28.5-9.3,56.7-8.3,84.2,3.6c29.3,12.6,59.2,15.8,89.9,5.8c9.9-3.2,19.4-7.6,29.3-10.6
			c26.8-8.1,53.4-6.5,79.2,4.3c20.7,8.7,42,14.6,64.5,11.4c13.2-1.9,26.6-5,38.9-10c33.6-13.8,66.6-14.2,99.9,0.2
			c14.1,6.1,28.8,10,44.3,10.5c1.7,0.1,3.4,0.5,5.3,0.8c0,24.3,0,48.4,0,73c-14.4,0-28-2.4-41-7.6c-17.7-7.1-35.5-13.6-54.9-13.9
			c-15.9-0.2-31.4,1.9-46.1,7.8c-15.2,6.1-30.5,11.9-47,13.3c-21,1.8-40.9-2.4-60.2-10.6c-33.1-14.2-66.2-14.3-99.2,0.1
			c-33.5,14.6-66.9,14.4-100.4-0.1c-32.8-14.2-65.8-14.2-98.5,0c-33.8,14.6-67.3,14.5-101.1-0.1c-32.6-14.1-65.3-14-97.9-0.1
			c-16.3,6.9-33.1,11.2-50.8,11.3C601.4,1260.1,601.4,1235.7,601.4,1211.3z"/>
		<path class="st18" d="M1154.4,1076.3c-54.3-0.1-94.8-40.9-94.5-95.2c0.3-52.5,42.4-94.4,94.8-94.3c52.6,0.1,95.1,42.8,94.7,95.2
			C1248.8,1034.4,1206.6,1076.4,1154.4,1076.3z"/>
	</g>
</g>
<g id="shelter" class="st0">
	<path class="st17" d="M1373.3,1136.7c0-6.4,0-12.8,0-19.9c6.9,0,13.2,0,19.9,0c0,36.7,0,73,0,110c-6.3,0-12.4,0-19.8,0
		c0-11.5-0.6-23.2,0.2-34.7c0.7-9.4-2.5-15.9-9.3-22.4c-22.4-21.4-44.2-43.5-66.2-65.3c-1.8-1.7-3.7-3.3-6.8-6.2
		c0,43.7,0,85.8,0,128.5c-61.3,0-121.8,0-183.7,0c0-3.2,0-6.5,0-9.7c0-24,0.2-47.9-0.2-71.9c0-3.3-1.9-7.8-4.4-9.6
		c-51.9-36.3-84.6-85.9-102.8-145.8c-0.7-2.2-1.4-4.4-2.2-7.2c-4.8,13.8-8.7,27.2-14,40c-19.4,46.8-48.5,85.9-91.5,114
		c-2.6,1.7-4.6,6.2-4.7,9.4c-0.3,23.2-0.1,46.4-0.1,69.6c0,3.6,0,7.2,0,11.3c-60.8,0-120.8,0-182.3,0c0-43.3,0-86.4,0-131.6
		c-3.4,2.9-4.9,4.1-6.3,5.4c-22.5,22.1-45.1,44-67.3,66.4c-2.9,2.9-4.9,8-5,12.1c-0.6,15.6-0.2,31.2-0.2,47.5c-6.8,0-13.1,0-19.8,0
		c0-36.6,0-72.9,0-109.9c6.4,0,12.7,0,19.3,0c0.3,4.5,0.6,8.8,1.1,14.9c124.1-120.2,247-239.1,370.4-358.6
		c124.9,121.7,249.4,243.1,373.9,364.5C1372.1,1137.3,1372.7,1137,1373.3,1136.7z"/>
</g>
<g id="restroom" class="st0">
	<g class="st1">
		<path class="st18" d="M733.6,896.2c13.9-24.5,27.4-47.5,39.8-71c4.7-8.9,9.9-13.5,20.4-12c8.5,1.2,17.3,0.1,25.7,1.5
			c27.1,4.6,46.4,26.4,46.7,53.8c0.5,52,0.5,104,0,155.9c-0.3,28.4-20.8,50.1-49.9,54.7c-2.4,0.4-4.9,0.6-8.1,0.9
			c-1.7,19.2-3.4,38.2-5,57.2c-3.7,44.3-7.4,88.5-11.2,132.8c-1.3,14.9-2.5,29.9-3.8,44.8c-1.5,18.1-14.4,30.9-32.6,31.4
			c-15,0.4-30,0.4-45,0c-17.4-0.5-30.7-12.8-32.2-30c-4.1-46.5-7.8-93-11.7-139.5c-2.7-32.1-5.4-64.1-8.2-96.6
			c-4.2-0.7-8-1.3-11.7-2c-26.9-5-46.3-27-46.5-54.2c-0.4-51.7-0.5-103.4,0-155.1c0.3-31.2,24.7-54.9,56-55.7
			c6.1-0.2,12.3,0.7,18.3-0.2c9.4-1.4,13.7,3.1,17.8,10.7c11.9,22.3,24.6,44.1,37.1,66.1C730.4,891.7,731.6,893.2,733.6,896.2z"/>
		<path class="st18" d="M1168.7,1159.7c-11.1,0-21.3,0.1-31.6,0c-15.3-0.2-22.4-10-17.1-24.5c13.9-38.3,27.2-76.9,42.4-114.7
			c7.3-18.3,9.1-36,6.3-55.1c-2.8-18.9-4.3-38.1-6.4-57.1c-0.1-1.2-0.4-2.5-2.2-4c-1.1,2.9-2.4,5.8-3.4,8.8
			c-17.1,49-34,98-51.1,146.9c-5.1,14.7-17.6,22-30.9,18.8c-16.5-4-24.4-19.3-18.3-36.3c14.3-40.2,28.8-80.4,43.2-120.6
			c8.2-23,16.2-46,24.7-68.9s25.4-35.7,49.5-39.3c6.7-1,11.2,0.5,14.8,7c10.6,18.9,21.9,37.4,33,56c1.5,2.5,3.1,5.1,5.4,8.9
			c3.9-6.3,7.1-11.4,10.1-16.5c9.8-16.5,19.8-32.8,29.2-49.5c3-5.4,6.6-6.7,12.1-6c23.8,2.8,41.9,14.2,50.2,36.9
			c23.8,64.5,46.8,129.3,69.9,194.1c5.1,14.3-2.5,28.9-16.3,33.5c-14.1,4.7-28-2.2-33.2-16.9c-17.3-49.5-34.4-99-51.7-148.5
			c-1-2.8-2.1-5.5-5-8c-1.8,16-3.6,32-5.3,48c-0.7,6.6-0.6,13.4-2,19.9c-3.7,16.3,0.5,30.9,6.3,46c14.7,38,28.3,76.5,42.2,114.8
			c6.2,16.9-0.7,26.5-18.6,26.5c-9.4,0-18.8,0-29.4,0c-1.8,15.2-3.6,29.9-5.3,44.7c-4.5,39.4-8.9,78.9-13.6,118.3
			c-1.6,13.3-12.4,23-26.1,23.7c-8.9,0.5-17.8,0.4-26.7,0c-14.8-0.7-24.9-11.1-26.6-25.9C1181.2,1267.3,1175,1214.1,1168.7,1159.7z"
			/>
		<path class="st18" d="M947.1,999c0-107.6,0-215.1,0-322.7c0-17.2,5.8-23,23-23c26.4,0,29.7,3.4,29.7,29.7c0,213.2,0,426.4,0,639.6
			c0,18.3-5.6,23.9-23.9,23.9c-2.8,0-5.6,0.1-8.3,0c-13.6-0.1-20.4-6.9-20.4-20.6c0-65.3,0-130.6,0-196
			C947.1,1086.3,947.1,1042.7,947.1,999z"/>
		<path class="st18" d="M1226.8,653.3c36.3-0.1,66.5,30,66.6,66.2s-30,66.4-66.2,66.6c-36.2,0.1-66.4-30-66.5-66.2
			C1160.5,683.5,1190.5,653.4,1226.8,653.3z"/>
		<path class="st18" d="M799.6,719.9c-0.2,36.4-30.2,66.2-66.6,66.2c-36.5,0-66.6-30.7-66.1-67.4c0.4-35.8,30.8-65.6,66.5-65.3
			C769.9,653.6,799.8,683.7,799.6,719.9z"/>
	</g>
</g>
</svg>
