<?xml version="1.0" encoding="utf-8"?>
<!-- Generator: Adobe Illustrator 20.1.0, SVG Export Plug-In . SVG Version: 6.00 Build 0)  -->
<svg version="1.1" id="Layer_1" xmlns="http://www.w3.org/2000/svg" xmlns:xlink="http://www.w3.org/1999/xlink" x="0px" y="0px"
	 viewBox="0 0 3000 3000" style="enable-background:new 0 0 3000 3000;" xml:space="preserve">
<style type="text/css">
	.st0{fill:#498CCA;}
	.st1{fill:#48A2DA;}
	.st2{fill:#49BAEB;}
	.st3{fill:#3CC5F3;}
	.st4{fill:#EBE2C0;}
	.st5{fill:#89C75B;}
	.st6{fill:none;}
	.st7{fill:#7FC45E;}
	.st8{fill:#76C154;}
	.st9{fill:#63BC54;}
	.st10{opacity:0.7;}
	.st11{fill:none;stroke:#F5F6F6;stroke-width:20;stroke-miterlimit:10;}
	.st12{fill:none;stroke:#F5F6F6;stroke-width:10;stroke-miterlimit:10;}
	.st13{fill:none;stroke:#34C5F4;stroke-width:15;stroke-miterlimit:10;}
</style>
<g id="ocean">
	<rect x="58.5" y="25.9" class="st0" width="2941.5" height="2974.1"/>
</g>
<g id="ocean_x5F_1">
	<path class="st1" d="M3000,0v503.3c-7.4,21.5-9.3,43.5-1.5,67.8c0.5,1.5,1,3,1.5,4.5v347c-27.2,19-77.5,60.1-96.7,124.8
		c-17.7,59.6-1.3,113.8,4.8,133.3c25.6,81.3,81.5,112.1,66.7,147.6c-8.8,21.3-30.4,14-57.1,42.9c-26.2,28.4-41,74.3-33.3,114.3
		c10.6,54.9,54.9,52.6,76.2,119c14.1,43.6,7.6,83.9,4.8,100c-7.9,46.1-22.8,46.8-33.3,90.5c-1.8,7.7-18.2,80.4,14.3,152.4
		c20.1,44.4,36.5,39.4,52.4,85.7c0.4,1.1,0.8,2.4,1.2,3.7v128.7c-3.3,8.9-7,17.3-10.7,29.5c-14.1,45.4-10.6,82.6-4.8,138.1
		c4,38.2,9.8,62.8,15.5,81.9v191.6c-1.9,6.9-3.9,14.1-6,21.7c-21.5,76.6-40.3,100.8-28.6,138.1c7.4,23.5,20.6,32.2,34.6,45.6v188
		h-886.6c-18.9-26.6-36.7-55.5-53.6-86.5c-84-154.4-142.8-360.2-177.4-592.2c-3.7-24.6-7.1-49.5-10.2-74.7
		c-5.3-42.5-9.8-85.7-13.5-129.5c-0.1-1.1-0.2-2.1-0.3-3.2c-3.7-43.9-6.6-88.5-8.8-133.5c-3.7-77.7-5.2-156.8-4.4-236.6c0,0,0,0,0,0
		c0.1-7.6,0.2-15.2,0.3-22.8c0.4-26.3,1.1-52.7,1.9-79c0.2-5.7,0.4-11.3,0.6-17c0.8-21.2,1.8-42.5,2.9-63.7
		c0.8-14.8,1.6-29.5,2.6-44.3c3.7-59.5,8.7-118.9,14.9-178c6.1-58.3,13.4-116.3,21.9-173.7c0.5-3.2,0.9-6.4,1.4-9.6
		c11.5-76.9,25.2-152.8,41-226.7c4.2-19.9,8.7-39.7,13.2-59.4c6.5-28.2,13.4-56,20.5-83.6c10.8-41.4,22.2-82.1,34.4-121.8
		c10.5-34.4,21.6-68,33.1-100.9c9.6-27.2,19.5-53.9,29.8-80c2.3-5.8,4.6-11.6,6.9-17.4c17.6-43.6,36.2-85.4,55.8-125.3
		c6.4-13.1,12.9-26,19.6-38.7c13.9-26.5,28.2-52,43-76.4c6.3-10.5,12.7-20.7,19.2-30.8c34.6-53.8,71.6-102.1,111-144
		c1.9-2,3.8-4.1,5.8-6.1c6.2-6.4,12.4-12.7,18.7-18.8c9.2-9,18.6-17.6,28.1-25.9H3000z"/>
</g>
<g id="ocean_x5F_2">
	<path class="st2" d="M2989.2,2899.8c9.3,38.8-0.2,75.5-10.1,100.2h-497.8c-15.6-34.1-29.5-74-42-119.9c-4.2-15.2-8.2-31-12.1-47.5
		c-10.7-45.1-20.5-95.2-29.7-150.1c-18.3-108.8-34.6-236.8-51.8-384.3c-0.4-3-0.7-6.1-1.1-9.2c-8.6-74.1-17.5-153.2-26.9-237.1
		c-4.1-36.4-8.1-72.1-12.1-106.9c-4.3-38.2-8.6-75.5-12.7-111.9c-8.1-71.9-15.9-140.2-23.2-205.3c-2.3-20.6-4.6-40.8-6.8-60.7
		c-0.9-8.4-1.9-16.8-2.8-25.1c0,0,0,0,0,0v0c-3.9-34.8-7.6-68.6-11.2-101.4c-11.6-105.3-21.6-200.7-30.1-287.4v0
		c-0.8-8.2-1.6-16.2-2.3-24.3c-0.5-5-0.9-10-1.4-14.9c-7.1-75.7-12.9-144.6-17.2-207.5c-2.3-34.3-4.2-66.9-5.7-97.8
		c-2.1-46.5-3.2-89.4-3.2-129.2c0-50.9,1.9-96.7,5.8-138.4c10.5-113,35.5-196,78.1-270.3c9.2-16.1,19.3-31.8,30.3-47.3
		c8.2-11.6,16.9-23.2,26.1-34.7c0.9-1.2,1.8-2.3,2.8-3.5c4.2-5.1,8.4-10.3,12.8-15.5c23.7-28,50.5-56.2,79.3-83.4
		c7.8-7.4,15.8-14.7,23.9-21.9c15-13.3,30.3-26.3,46-38.8C2505,17,2516.3,8.3,2527.7,0h414.7c4,8.6,7.6,17.3,11,25.9
		c13,33.2,21.2,64.5,26.2,83.3c29.4,111.1,12.8,208.5,4.8,252.4c-23.2,128.2-64.5,136.5-57.1,223.8c7.1,84,48.1,110.3,33.3,181
		c-11.4,54.3-36.2,51.2-66.7,119c-56.1,125-26,262.1-23.8,271.4c15.3,66,38.6,89.1,23.8,128.6c-17.9,47.9-65.2,42.3-85.7,90.5
		c-19.5,45.9-2.6,93,28.6,176.2c44.3,118.3,74.4,121.3,76.2,181c2.2,72.1-41.2,78.2-47.6,166.7c-2.5,34.3,9.4,82,33.3,176.2
		c31.8,125.1,42.3,131.8,38.1,171.4c-8,75.6-49.9,84.9-42.9,142.9c7.2,59.2,52.3,62.2,66.7,133.3c7.2,35.2,1.6,64.8-9.5,123.8
		c-16.4,87-34.3,90.7-28.6,128.6C2931.2,2833.7,2975.1,2840.7,2989.2,2899.8z"/>
	<path class="st3" d="M2959.6,3000h-118.3c-8.2-3.9-16.7-8.1-25.6-12.7c-20.9-10.8-43.6-23.4-67.7-37.8
		c-40.5-24.1-85.1-53.2-132.1-87.1c-15.9-11.5-32.1-23.5-48.6-36c-55.2-42.1-112.7-90.2-170-143.8c-33.2-31-66.2-63.9-98.7-98.5
		c-14.2-15.1-28.3-30.6-42.3-46.4c-22-24.9-43.5-50.6-64.6-77c-15.9-20-31.5-40.5-46.7-61.4c-6.9-9.4-13.6-18.9-20.3-28.5
		c-29-41.6-56.5-84.8-81.8-129.6c-7.9-13.9-15.6-28-23-42.3c-15.2-28.9-29.3-58.2-42.4-87.8c-5.9-13.3-11.6-26.7-17.1-40.1v0
		c-16.4-40.1-31.1-80.8-44.1-121.8c-2.2-7-4.4-14-6.5-21c-15.3-50.8-28-102.1-38.4-153.7c-2.6-13.1-5.1-26.2-7.4-39.3
		c-5.4-30.5-10-61.1-13.8-91.8c-0.8-6.1-1.5-12.2-2.2-18.2c-2.7-23.4-4.9-46.8-6.7-70.3c-2-26.9-3.5-53.9-4.4-80.8
		c-1.4-40.1-1.5-80.2-0.5-120c1.4-57.2,5.3-114,11.2-170.1c1.8-17.4,3.9-34.7,6.1-52c0.5-3.8,1-7.6,1.5-11.4
		c8.6-63.5,19.9-125.9,33.6-186.8c0.7-3.2,1.4-6.4,2.2-9.6c1.2-5.4,2.5-10.7,3.7-16.1c10.3-43.4,21.7-86.1,34.2-127.7
		c13.3-44.2,27.8-87.3,43.3-129.1c14.4-38.8,29.7-76.4,45.8-112.8c9.9-22.4,20.2-44.4,30.7-65.8c2.3-4.7,4.6-9.3,6.9-13.9
		c22-43.9,45.1-85.4,69.2-124.2c6.9-11.1,13.8-22,20.8-32.6c16.8-25.5,33.9-49.7,51.4-72.5c8.3-10.9,16.7-21.4,25.1-31.6
		c31.7-38.4,64.3-72,97.2-100.3c2.6-2.2,5.1-4.4,7.7-6.5c25.4-21.1,50.9-39,76.5-53.4c6.2-3.5,12.4-6.8,18.6-9.9
		c1.3-0.7,2.6-1.3,4-1.9c8.3-4,16.7-7.7,25-10.9c12.1-4.7,27.4-9.9,44.7-15h312.4c3.6,7.5,5,16.4,5.8,25.9
		c2.1,27.2-1.4,59.9,24,83.6c23,21.4,42.6,10.3,63.5,31c31.7,31.6,25,95.7,9.1,137.7c-25.7,68.1-69.1,61.3-94.5,127.1
		c-15.6,40.6-11.6,75.9-4.5,139.2c5.6,50,10.7,95.6,40.8,141.4c25.4,38.8,42.4,37.7,47.6,62.8c10.9,52.7-53.8,108.6-90,139.9
		c-82.3,71.2-115.3,54.4-161.1,114.2c-34.5,45.2-63.1,116.7-37.8,152.8c12.3,17.6,31.9,18.9,41.6,43.9c5.6,14.3,2.3,21.9,0,58.2
		c-2.6,40.7-3.9,61.1,0,78.7c9.1,41.6,34.4,62.1,25.7,73.4c-4.6,6-15.4,4.7-28.7,3c-45.6-5.9-54.7-27.8-84.7-28.7
		c-24.6-0.7-48.2,13.3-62,31c-2.5,3.2-22.4,29.7-15.1,59c6.8,27.2,33,41.9,49.2,50.7c130.9,71,187.6,68.8,229.2,123.3
		c20,26.3,28.9,55.8,36.3,80.2c9.3,30.9,19.9,66.1,13.6,108.2c-8.7,57.8-40.8,70.4-31.8,105.1c7.2,27.6,28.4,23.6,54.5,62.8
		c4.6,6.9,33.8,52,31,108.9c-2.3,47.1-24.1,52.8-16.6,90c4.7,23.4,16.6,37.7,11.3,63.5c-1.3,6-4.1,18.9-14.4,29.5
		c-13.4,13.8-25.4,9.4-34.8,18.2c-19.8,18.4-1.9,71.3,13.6,99.8c11.3,20.8,32.6,60.1,71.1,71.1c11.9,3.4,28.3,4.9,40.8,18.9
		c6.4,7.2,13,19.1,9.1,25.7c-3.3,5.5-11.2,2.9-25,8.3c-8.2,3.2-17,8.7-21.9,14.4c-3.5,4-11.1,15.2-3,55.2
		c8.9,44.1,21.2,45.3,21.9,73.4c0.3,14.5-3,12.4-9.1,54.5c-3.7,25.1-5.5,37.7-5.3,47.6c0.8,43.1,20.5,82.7,21.9,85.5
		c7.8,15.3,15,24.2,12.9,37.8c-1.7,11.4-9.3,21.7-4.5,28c2.2,2.9,5.7,3.2,7.6,3.8C2956.6,2942.2,2961.2,2974.6,2959.6,3000z"/>
</g>
<path class="st4" d="M2937.3,3000H31.9c-10.8-10.8-21.4-21.6-31.9-32.7V78c19-17.8,38.5-35.2,58.5-52.1C68.9,17.1,79.4,8.5,90,0
	h2317.6c3.8,7.7,8.2,16.5,13.7,25.9c0.4,0.6,0.8,1.3,1.1,1.9c6.9,11.6,15.2,24.2,25.5,36.9c13.4,16.6,30,33.4,50.8,48.6
	c101.7,74.6,222.2,52.3,245.5,121c4,11.6,1.7,28-2.7,60.7c-11.1,81.6-45.5,102.3-42.9,152.4c0.6,10.8,2.9,41.2,42.9,128.6
	c60,130.9,92.7,145.2,85.7,185.7c-9.7,56.5-76.9,48.8-161.9,128.6c-69.2,65-155.2,192.5-128.6,304.8c12.4,52.6,50.2,104.2,33.3,119
	c-9.7,8.5-24.6-6-52.4,0c-44.5,9.6-65.8,59.7-66.7,61.9c-14.9,36.4-4.4,71.7,0,85.7c42.4,135.4,238.7,179.6,290.5,300
	c11.4,26.4,14.3,52.4,14.3,52.4c6.5,57.9-21.1,77.6-23.8,119c-5.9,90.8,118.2,135.7,100,209.5c-4.7,18.8-12.5,15-28.6,42.9
	c-42.5,73.6-41.3,191.8,14.3,261.9c23.8,30,51.4,43.5,52.4,76.2c0.9,27.8-18.5,32.7-19,61.9c-0.7,39.3,34.3,50.5,47.6,100
	c8.2,30.5,2.5,54.6,0,71.4C2885.4,2844.2,2924.2,2947.5,2937.3,3000z"/>
<g id="land">
	<path class="st5" d="M2871.2,3000H0V0h2382.1c5.9,8.6,11.1,17.2,15.8,25.9c2.1,3.9,4.1,7.9,6,11.8c8,16.6,14.3,33,20.2,48.9
		c18.2,49.1,32.9,93.1,83.6,119.7c69.1,36.1,139.4,5.6,172.9,54.6c12.4,18.1,12.2,36,9.1,86.4c-10.2,169-21,186.9-18.2,241.1
		c6.2,120.4,65.3,143.6,40.9,191.1c-38.9,75.9-194.7,27.5-236.6,109.2c-8.8,17.1-2.8,56.9,9.1,136.5c18.4,122.7,38.6,173,9.1,204.7
		c-17.9,19.3-32.3,8.1-54.6,27.3c-59.6,51.4-20.3,186.3-13.6,209.3c27.8,95.6,85.3,157.5,100.1,172.9
		c76.3,79.1,130.4,72.4,145.6,127.4c18.3,66.3-54.7,96.2-36.4,163.8c16.8,62,84.8,61.3,131.9,159.2c9.4,19.5,19.1,39.7,22.7,68.2
		c13.8,109-85.9,152.9-68.2,227.5c16.1,67.8,110,79.1,104.6,131.9c-3.9,38.6-56.3,53.8-50,86.4c3.9,20.3,25.7,22,50,50
		c23.2,26.6,29.5,55.1,36.4,86.4C2878.6,2813.2,2878.5,2937.1,2871.2,3000z"/>
	<path class="st6" d="M2079.9,87.7C2079.9,87.7,2079.9,87.7,2079.9,87.7c-41.8,0-77.5-25.5-92.5-61.8c-3.4-8.1-5.7-16.8-6.8-25.9"/>
	<path class="st6" d="M2011.3,60.6c0,306.8-225.7,555-504.6,555"/>
	<path class="st6" d="M1506.7,615.6c0,488.3-350,883.5-782.5,883.5"/>
</g>
<g id="land_x5F_2">
	<path class="st7" d="M2748.1,2949.5c-2.3,17.5-6.1,34.5-11,50.5h-729.8c-0.1-18,3.3-37.9,14.4-55.4c10.3-16.2,23.7-24.7,38.2-31.1
		c25.8-11.4,54.9-15.8,75.6-44.8c27.1-37.9,25.4-97.2,4.7-137.6c-39-76.3-130.8-56.6-156.5-118.6c-21.4-51.9,21.2-117.8,52.2-157.1
		c9.9-12.4,18.5-22.2,23.7-27.9c9.6-10.7,19.5-20.5,29.6-29.4c11.6-10.2,23.6-19.3,35.6-27.4c10.2-6.9,20.6-13.1,30.8-18.6
		c0,0,0,0,0,0c6.7-3.6,13.5-7,20.1-10.1c52.9-24.6,102.1-33.2,130.4-37.8c4.4-0.7,9.7-1.6,15.7-2.5c1.9-0.3,3.9-0.6,6-0.9
		c5.5-0.8,11.5-1.6,17.8-2.4c64.9-8.2,170.3-12.8,207.1,43.8c11.7,18.1,6.8,27.6,14.2,185c2.3,50.1,3.5,75.2,4.7,80.6
		c19.8,89.5,91.3,115.4,137.7,174.8c6.9,8.9,13.3,18.5,18.8,29.2c3.8,7.3,7.1,14.9,9.8,22.6
		C2751.1,2870.9,2753.1,2911.3,2748.1,2949.5z"/>
	<path class="st7" d="M707.5,2356.4c-113.8,14.5-324.6-204.9-260.9-374.7c33.1-88.1,139.5-161.3,204-137.6
		c77,28.4,43.9,176.3,151.8,237.2c61.1,34.5,103.9,5.2,142.3,47.4c46.5,51.1,41.2,156.9-4.7,189.7c-32.8,23.4-65.2-5.4-156.5,14.2
		C736.5,2342.7,730.4,2353.5,707.5,2356.4z"/>
	<path class="st7" d="M1556.6,1939c-36.8-74.3-8.5-201.9,80.6-265.6c74.2-53,191.1-62.3,241.9-9.5c46.9,48.8-0.9,110.7,37.1,284.8
		c29.2,133.7,69.3,151.9,81.4,156.3c45.7,16.4,86.8-23.7,113.8,0c21.6,18.9,19.1,65.1,0,94.9c-19.8,30.8-53.6,38-68.6,41.2
		c-3.5,0.7-68.7,13.7-116.4-27c-44.5-38-30.7-86.1-66.4-99.6c-20.7-7.8-31.3,6.1-90.1,23.7c-45.4,13.6-112.5,33.6-132.8,9.5
		c-13.6-16.2,6.9-36.7,4.7-75.9C1638.5,2009.6,1582.9,1992.1,1556.6,1939z"/>
	<path class="st7" d="M1732.1,1028.3c-32.3-128.4-62.6-248.5-161.3-270.4c-50.6-11.2-108.7,5.6-147,37.9
		c-63.4,53.6-40.1,122.5-94.9,151.8c-59.6,31.8-121.8-31.2-161.3,0c-45.5,36-5.6,154.1,0,170.8c31.5,93.1,120.6,234.9,256.1,241.9
		c60.7,3.2,142.4-20.1,156.5-66.4c13.3-43.6-43.5-74.1-52.2-170.8c-3.7-41.4,1.8-90.5,19-94.9c21.3-5.4,36.6,64.5,99.6,85.4
		c24.8,8.2,62.3,10.6,80.6-9.5C1744.5,1085.3,1738.5,1053.7,1732.1,1028.3z"/>
	<path class="st7" d="M1195.2,0c-7.1,7.9-14.7,16.4-22.8,25.8c0,0-0.1,0.1-0.1,0.1c-39.6,45.8-108.5,125.6-162.2,222.3
		c-8.6,15.4-16.8,31.3-24.4,47.5c-6.2,13.1-12,26.5-17.3,40c-1.4,3.5-2.7,7-4,10.5c-1.4,3.7-2.7,7.4-4,11
		c-8.2,23.5-13.8,44.5-17.5,63.3c-15,75.5-1.3,117.5-14.9,157.7c-4.7,13.9-12.6,27.5-26,42.2c-6.5,7.1-13.4,13.5-20.7,19.3
		c-50.2,39.9-117.1,50.2-177,58.2c0,0,0,0,0,0c-20.2,2.7-39.6,5.1-57.3,8.3h0c-43,7.7-76.1,20.1-86.5,51.8
		c-6.1,18.4-1.2,41.3,9.9,83.3c1.4,5.1,2.8,10.6,4.4,16.3c23.9,90,55.4,106.4,47.4,132.8c-7.8,25.6-46.3,40-97.8,47
		c-23.3,3.2-49.2,4.8-76.1,5.3c-60.2,1.2-125.4-3.4-177.1-9.7c-90.3-11-157.7-19.1-212.7-35.9c-21.1-6.5-40.4-14.2-58.5-23.8V0
		h239.8c26.4,3.8,56.1,4.6,90.6,0H1195.2z"/>
	<path class="st7" d="M2581,440.1c-1.6,4.3-3.1,8.5-4.5,12.5c-21.4,64.3-7.1,98.1-33.4,115.6c-11.7,7.8-25.2,8.2-43.2,5.4
		c-8.3-1.3-17.5-3.2-27.9-5.4c-52.3-11.1-66.3-32.8-104.4-42.7c-47.5-12.3-81.4,7.1-113.8,14.2c-19.1,4.2-39,4.4-59,1.5
		c-44.4-6.6-89.9-28.7-131.1-57.7c-4.9-3.5-9.8-7-14.5-10.7c-24.1-18.4-46.4-38.8-65.8-59.5c-12.4-13.2-23.5-26.6-33.1-39.5
		c-4.7-6.4-9.6-13.3-14.4-20.7c-52.2-79.4-107.4-214.7-66.6-327.1c3.2-8.8,7-17.4,11.4-25.9H2316c0.9,8.6,1.6,17.3,2.1,25.9
		c0,0.1,0,0.1,0,0.2c0.5,8.4,0.8,16.7,1.1,24.8c0.5,17.6,0.5,33.9,0.5,46.8V98c0,26.8-1.5,30.9,0.5,48c0.3,2.7,2.6,20.5,9,42.9
		c5.6,19.4,14.2,42.2,27.4,61.7c11.2,16.5,25.6,30.5,44.1,37.8c3.6,1.4,7,2.5,10.3,3.2c32.3,7,48.9-18.5,98.8-7.9
		c45.9,9.8,95.1,44.7,99.6,85.4C2612,391.6,2598.3,395.1,2581,440.1z"/>
	<path class="st7" d="M2249.1,663.1c-101.5,39.6-259,28.9-327.3-52.2c-45.6-54.1-9.5-89.9-71.1-227.7
		c-28-62.5-46.9-103.2-90.1-123.3c-79.4-36.9-175.7,25.4-180.2,28.5c-95.8,63.9-81.9,160.4-161.3,185
		c-59.7,18.5-92.2-28.6-132.8-4.7c-58.1,34.1-83.5,184.6,0,251.4c59.3,47.4,153.5,36.7,199.2-4.7c30-27.2,22.7-52.6,56.9-75.9
		c39.6-26.9,103.8-29.8,137.6,0c29.7,26.3,11,56,33.2,128.1c10.5,34.2,36.4,118,109.1,151.8c68,31.6,138.6,1.6,142.3,0
		c71.8-31.7,65.9-91.7,123.3-113.8c70.5-27.2,185.1,22.7,208.7,94.9c31.4,95.9-113.4,183.1-77.8,252.9
		c25.9,50.7,133.2,65.7,172.6,26.9c25.2-24.8,10.3-59.4,4.7-204c-5.5-142.8,7.1-161.9,14.2-170.8c56.8-70.1,199.8-16.8,213.4-56.9
		c9.8-28.9-57.1-77.9-99.6-99.6c-79.7-40.8-156.8-28.5-180.2-23.7C2298.8,634.2,2285.8,648.7,2249.1,663.1z"/>
	<path class="st7" d="M778.6,1861.9c-32.1-7.5-55.4-30.5-74.3-59.8c-43-66.8-63.5-166-115.1-187.5c-6-2.5-12.4-3.9-19.3-4.1
		c-59.3-1.9-120.9,87-142.3,156.5c-2.8,9.2-4.8,17.6-6.2,25.3c-9.2,52.2,9,77.5-10.2,125.1v0c-0.8,2-1.7,4-2.6,6
		c-15,33.3-35.7,49.9-58.3,63.8c-28.9,17.8-61,31.1-88.7,69.1c-14.7,20.2-25.4,43.6-32.4,68.6c-21.4,76.3-8.5,168.4,27.7,235
		c5.9,10.9,12.2,20.5,18.6,29.2c29.5,39.4,64.1,58.4,96.8,78.7c0,0,0,0,0,0c0.5,0.3,1.1,0.7,1.6,1c34.2,21.4,65.9,44.7,87,95.1
		c16.1,38.7,23.1,86.6,18,131.5c-4.7,40.9-19.4,79.3-46.5,105.7c-49.4,48.3-158.3,34.5-373.9,4.7c-21.4-2.9-40.8-5.7-58.5-8.2
		V1131.8c19.1-9.7,38.6-18.5,58.5-26.2c141-55.1,297.3-61.1,405.9-27c54.9,17.2,97.5,44.7,119.8,81.2c26.5,43.4,6.8,71.1,47.4,151.8
		c28.9,57.4,67.2,99.8,99.6,129.2c21.5,19.5,40.4,33.2,52.1,41.6c0,0,0,0,0,0c2.1,1.5,4.1,2.9,6.1,4.3c4,2.8,8,5.5,11.9,8
		c111,72.4,191.3,61.6,225.1,91.9c5.6,5,9.9,11.2,12.9,19.1c2,5.3,3.2,10.9,3.8,16.9C1051.9,1716.5,889.2,1887.6,778.6,1861.9z"/>
	<path class="st7" d="M1860.2,2631.6c-2.5,116.3-4,184.1-36.8,226c-4.5,5.8-9.6,11-15.4,15.9c-31.3,26.2-61.5,22.5-99.9,19.4
		c-26.6-2.2-57.1-4.1-94.6,4.3c-70,15.8-106.3,54.8-141.5,102.8H504.8c20.9-26.4,52.2-41.7,117.3-112.3
		c46.6-50.6,69.9-75.9,90.1-113.8c8.2-15.4,14.3-29.9,18.9-43.5c8.7-25.7,12-48.3,13.4-68.4c3.4-46.4-3.1-78.7,24.5-101.5
		c1.2-1,2.4-1.9,3.6-2.7c0.1-0.1,0.2-0.2,0.3-0.2c26.6-18.8,62.3-13.6,101.6-3.4c64.5,16.6,138.6,46.7,198.1,6.4
		c32.9-22.3,45.5-55.4,56.9-85.4c46.5-122.4-36.1-193.4-33.2-379.5c0.1-4.2,0.1-8.4,0.2-12.6c0.3-16,0.7-31.7,1.6-46.8
		c3.4-52.7,13.7-98.7,50.3-130.4c13.4-11.6,29.4-20.4,46.8-26.6c14.7-5.3,30.3-8.7,46.3-10.4c16-1.7,32.3-1.7,48.3-0.1
		c51,5.2,98.2,26.7,119.5,60.8c11.7,18.8,13.3,37.8,10.5,58.1v0c-1.5,11.2-4.3,22.7-7.5,34.9c-9.7,37.5-22.3,80.3-9,133.9
		c1.6,6.4,3.6,13,6,19.7c3.4,9.7,27.5,74.7,90.1,118.6c52.9,37.1,81.5,22.8,181.1,58.6c2.8,1,5.7,2,8.6,3.1
		c23,8.6,42.4,15.8,59.1,22.8c36.3,15.2,59.5,29.1,78.5,53.1C1862.8,2477.4,1862.4,2529.4,1860.2,2631.6z"/>
	<path class="st7" d="M1890.5,1165.4c-83.4,9.1-177.3,191.6-115.8,313.5c41.4,82,153.5,137.6,204,104.4
		c36.2-23.9,44.9-96.4,23.7-147c-24-57.2-78.2-66.9-75.9-104.4c2.4-39.7,64.4-47.7,66.4-85.4
		C1995,1209.3,1937.8,1160.3,1890.5,1165.4z"/>
	<path class="st7" d="M2177.9,1844.1c-56.3-30.7-46.3-161-19-246.6c34.5-108.2,110.5-189.2,128.1-180.2
		c18.7,9.6-54.8,107.8-17.3,210.7c31.9,87.6,119.6,111,107.5,154.6c-9.1,32.8-66.4,46.6-109.1,56.9
		C2224.9,1849.8,2199.5,1855.9,2177.9,1844.1z"/>
</g>
<g id="land_x5F_3">
	<path class="st8" d="M674.4,1616.4c-27.2,62.6,26.6,134.6,75.9,166c51.4,32.7,129.5,41.2,180.2,0c29.6-24.1,56.9-70.7,42.7-99.6
		c-16.8-34.1-78.9-17.9-104.4-61.7c-14.6-25.1-0.5-41.4-14.2-56.9C825.2,1530.9,705.8,1544.1,674.4,1616.4z"/>
	<path class="st8" d="M526.7,1443.2c-2.8,2.6-5.8,5-8.9,7.2c-38.4,26.2-94,8.9-137.6-4.6c-78.5-24.5-101.4-62.9-123.3-52.2
		c-39.5,19.3,31.5,145.9-19,246.6c-4.6,9.1-10.1,17.9-16.3,26.2c-36.9,49.2-101.1,84.9-163.1,95.3c-20,3.4-39.9,4.1-58.5,1.7v-531.2
		c19.9-18.3,40.1-33.6,58.5-45.9c33.8-22.7,61.6-35.5,70.3-39.4c44.3-19.9,81.3-27.6,109.1-33.2c77.7-15.8,146.9-29.8,180.2,4.7
		c32.6,33.8,5.1,87.7,42.7,113.8c10.7,7.4,20,8,29.2,8c10.5,0,20.8-1,32.5,6.2C568.7,1275,577.4,1395.5,526.7,1443.2z"/>
	<path class="st8" d="M1433.3,900.2c-30.9-4.9-45.4,127.7-123.3,142.3c-41.6,7.8-59.8-25.8-137.6-33.2c-53.4-5.1-63.6,8.9-109.1,9.5
		c-128.1,1.6-167.4-108-251.4-90.1c-58.5,12.5-99.3,78.4-109.1,132.8c-14.8,81.9,39.1,147.2,66.4,180.2
		c132.6,160.6,403.3,202.3,469.6,118.6c32.5-41,7.7-101.9,42.7-118.6c43.8-20.9,105.2,63.5,147,42.7c21.3-10.6,26.1-42.6,28.5-113.8
		C1460.8,1054.6,1465.8,905.4,1433.3,900.2z"/>
	<path class="st8" d="M807.3,364.9c-0.1,14-1.6,28-5,42c-0.6,2.7-1.3,5.4-2.1,8c-15.5,54.1-55.9,101.7-107,124.8
		c-47,21.2-95.3,18-138.7,8.4c-69.4-15.4-126.4-47.5-145.9-22.6c-22.5,28.6,40.8,86.4,74.9,217.7c2,7.8,4,15.9,5.8,24.3
		c16.8,78.3,30.1,140.1,0,180.2c-14.4,19.1-37.6,31.9-67,39c-90.6,21.9-239.4-11.1-363.9-84.5c-2.6-1.6-5.3-3.1-7.9-4.8
		c-17.4-10.6-34.4-22-50.5-34.2V318.7c19.1,4,38.3,10.8,58.5,17.4c43.1,14.1,90.6,27.1,151,9.2c81-24.1,71.3-70,170.8-123.4
		c68.5-36.8,191.3-78.4,289-49.6c24.2,7.1,46.8,18.5,66.7,35.4c15.1,12.8,28.5,28.6,39.6,46.6l0,0c13.5,22,23.5,47.1,28.4,73.5v0
		C806.2,340,807.4,352.4,807.3,364.9z"/>
	<path class="st8" d="M1015.8,283.6l-5.7-35.4l-22.7-140.1c-4.4-27.4-8.9-54.8-13.3-82.2c-0.3-1.8-0.6-3.7-0.9-5.5
		c-1.1-6.8-2.2-13.5-3.3-20.3c1.1,6.8,2.2,13.6,3.3,20.3l0.9,5.5h0c4.4,27.4,8.9,54.8,13.3,82.2l22.7,140.1L1015.8,283.6z"/>
	<path class="st8" d="M1556.6,506.5c-1.9,5.9-4.3,11.6-7.2,16.9c-1.5,2.8-3.2,5.6-5,8.3c-19.1,28.4-52.6,48.6-89.2,63
		c-55.4,21.8-118.1,30.6-149.9,35c-21.7,3-44.6,5.2-68.2,6.4c-27.6,1.4-56.1,1.5-84.4,0.2c-0.6,0-1.1-0.1-1.7-0.1
		c-9.7-0.5-19.4-1.1-29-1.9c-78.5-6.6-151.5-24.6-193.8-56.3c-18-13.5-30.5-29.4-35.5-47.9c-11.5-42.4,25.1-64.5,50.4-109.8
		c9.5-17,17.4-37.3,20.5-63.2c0.4-3.6,0.8-7.3,1-11.1v-0.1c2.5-39.9-7.4-70.9-21-100.7c-24.6-53.8-61.5-103.6-60.4-194.3
		c0.1-7,0.2-15.6,0.8-25.2c0.4-8,1.2-16.7,2.4-25.9h610.1c-8,7.9-15.7,16.4-22.7,25.9c-15.4,20.7-27.3,45.8-30.9,77.4
		c-1.8,15.9-0.8,28,6,51.1c4.3,14.5,10.8,33.3,20.5,60.1c11.6,32.1,27.5,75.7,49.2,137c0,0.1,0,0.1,0.1,0.2
		C1559.8,468.1,1563.6,484.4,1556.6,506.5z"/>
	<path class="st8" d="M1267.3,2939.7c-0.3,24.1,0,43.9,0.5,60.3H673.3c-0.2-14.6,1.6-28.5,5.8-41.3c16-49.4,69.2-85.1,175.5-156.5
		c42.5-28.5,67.5-45.3,104.4-61.7c26.2-11.6,59.7-23.6,95.2-32.8h0c21-5.4,42.7-9.9,63.9-12.8c41.4-5.6,81.2-5.2,111.6,6
		c15.2,5.6,28.1,13.9,37.5,25.4c22.6,27.7,6.9,50.9,1.5,164.3C1268,2905.3,1267.5,2921.6,1267.3,2939.7z"/>
</g>
<g id="land_x5F_4">
	<path class="st9" d="M452.2,1892.5c-1.1,13.7-3.3,25.3-4.8,33.2c-9.9,52.4-40.1,98.8-79,133.7c-25.6,23.1-55,41.1-84.8,52.6
		c-21.1,8.2-38.5,11.6-54.5,12.9c-42.5,3.6-75.1-7-142.3,21.9c-10.8,4.6-20.2,9.3-28.4,13.7c-27.6,14.9-42.5,27.3-58.5,28.6v-605.7
		c10-13.7,22.5-24.6,38-30.9c6.7-2.7,13.5-4.3,20.5-5.1c43.2-5,90.9,22.6,117.1,45c30.3,26,37.7,50.2,46,74
		c7.1,20.4,14.8,40.5,38.2,61.4c58.3,51.9,119.6,24.6,161.6,64.6c3.2,3,6.2,6.4,9.2,10.2C452,1830.6,454.3,1865.4,452.2,1892.5z"/>
	<path class="st9" d="M1012.4,1986.1c25.4,28.7,38.5,43.2,58.6,48.2c30.9,7.8,66.6-4.4,86.1-27.6c9.6-11.5,8.2-17.1,20.7-65.5
		c17-66.1,23.8-71.3,24.1-99.9c0.1-12-3.3-29.8-10.3-65.5c-15.4-78.7-25.1-90.5-31-96.5c-11.8-12-39.8-32.6-62-24.1
		c-39.7,15.1-11.9,104.9-62,137.8c-32.5,21.3-67.7-0.9-86.1,24.1c-12.3,16.6-6.4,39.8,0,65.5
		C961.8,1928.1,987.2,1957.6,1012.4,1986.1z"/>
	<path class="st9" d="M1339.7,1982.6c-26.7-15.9-33.2-43.8-44.8-93c-11-46.8-22.6-96.2,3.4-117.1c17.7-14.2,49.2-12.5,68.9,0
		c23.7,15,17.4,37.2,48.2,65.5c19.7,18,26.8,13.1,37.9,27.6c17.9,23.3,22.3,65.8,0,96.5C1426.1,1999.3,1371.7,2001.7,1339.7,1982.6z
		"/>
	<path class="st9" d="M783.4,1482.4c-15.6,39,14.8,97,56.7,121.2c33.5,19.4,68.1,13.6,127.5,3.4c32.6-5.5,49-8.6,59.1-20.4
		c26.3-31-9.3-76.2,16.7-110.5c21.5-28.3,62.4-19.4,65.5-37.9c2.2-13-17.2-23-58.6-58.6c-29-24.9-32.5-31.3-51.7-48.2
		c-16.5-14.6-124.8-111.1-148.1-93c-22,17,61.3,113,24.1,175.7C850.6,1454.6,799.4,1442.5,783.4,1482.4z"/>
	<path class="st9" d="M2817.2,3000H1789.4c14.7-25.9,28.8-59.4,32.5-107.9c0.6-7.6,1.5-19.7,1.5-34.5c-0.2-37.7-6.9-92.9-42.8-134.3
		c-5.6-6.5-21-20.4-51.7-48.2c-44.5-40.4-62.9-54-72.3-82.7c-6.4-19.5-0.1-20.2-6.9-41.3c-15.1-47.5-49.9-54.7-48.2-75.8
		c1.9-24.1,47.7-22.5,106.8-62c18.4-12.3,30.8-23.7,40.2-34c23.2-25.5,28.6-44.6,63.2-55.6c29.2-9.3,46.5-2.4,70.7-2.4
		c11.9,0,25.5-1.7,43-7.9c39.3-13.8,55-34.7,65.5-27.6c18.4,12.5-28.6,78.5,0,130.9c10.8,19.8,27.8,29.2,44.9,38.7
		c0,0,0.1,0,0.1,0.1c45,24.8,106.7,29.7,155.9,5.2c0,0,0,0,0.1,0c43.1-21.6,58.7-56.9,71.2-50.8c9.3,4.6,5.8,27,0,72.3
		c-2.8,22-5,40.3-6.7,55.6c-8.7,77.8-5.7,79-14,99.4c-27.3,67-67.1,71.5-62,106.8c4.7,32.4,41.8,53.4,99.9,86.1
		c20.8,11.7,47.9,26.8,86.1,37.9c17.6,5.1,40.7,10.3,72.8,12.3c22.6,1.4,49.6,1.1,82.2-2c37.5-3.5,68.5-9.4,94.6-15.7
		c61.2-14.9,95.3-32.5,122-28.1c7.5,1.2,14.4,4.2,21.1,9.4c23.3,18,33.5,54.4,48.2,106.8c3.4,11.9,6.6,23.5,8.5,36.8
		C2816.4,2991.3,2816.9,2995.6,2817.2,3000z"/>
	<path class="st9" d="M1498.2,1658.8c-12.5,14.4,20.3,45.9,51.9,142.3c13.2,40.2,17.5,65.4,23.9,102.3c14.7,85,4.5,98.6,0,103.4
		c-26,27.7-91.3,5.7-93,13.8c-1.6,7.8,60.6,15.3,68.9,48.2c6.1,24.1-17.8,57.9-20.7,62c-3.6,5-6.7,8.6-11.5,14
		c-25.7,29-38.3,30.4-40.2,41.1c-3.1,17.8,26.2,47.5,51.7,44.8c36.3-3.9,48.5-72,65.5-68.9c18.8,3.5-1.5,87.2,41.3,120.6
		c25.9,20.2,71.2,19.3,96.5-3.4c30.6-27.5,25.8-81.5,6.9-113.7c-25.9-44.1-72.8-37.5-82.7-75.8c-6.3-24.2,5-55.3,27.6-68.9
		c26.7-16.1,58.8-1.5,62,0c40.5,19.2,31.5,60.7,65.5,86.1c31.9,23.9,58.6,1.4,141.2,3.4c29,0.7,151.1,3.8,171.7,57.2
		c6.3,16.4-0.2,41.2-13.2,90.9c-11.8,45-21.6,58.8-13.2,73.2c13.8,23.9,65.1,28.2,77.4,10.7c13.6-19.4-25.2-58.8-12.5-73.5
		c13.9-16,69.4,19.6,79.2,6.9c9.5-12.3-44.2-43.9-58.6-110.2c-12.1-56.1,0-117.1,0-117.1c4.7-23.4,9.8-33.9,3.4-44.8
		c-13-22.5-51.4-6.7-106.8-17.2c-67-12.8-124.8-57.5-155-106.8c-15.6-25.5-7-24.7-25-58.5c-10.4-19.6-51.9-97.7-126.6-124
		c-43.5-15.4-48.7,4.3-120.6-3.4C1557.6,1682.9,1512.6,1642.1,1498.2,1658.8z"/>
	<path class="st9" d="M605.9,2237.6c34.9,13.4,74-106.6,158.5-113.7c39.9-3.4,62.8,20.8,103.4,3.4c25.5-10.9,45.3-32.9,41.3-41.3
		c-7.1-15.1-85.4,22.3-106.6-4.7c-12.9-16.4,10.4-37.4,3.3-71.1c-6-28.5-28.8-42.5-99.3-87.5c-85.6-54.5-123.1-79.1-126.7-74.2
		c-3.9,5.3,44,29.7,53.8,79.1c7.2,36.2-6.9,82-37.9,103.4c-44.4,30.6-112.2,3.7-113.7,10.3c-1.9,8.2,107.6,23.9,117.1,72.3
		c4.8,24.4-19.2,39.4-13.8,79.2C586.8,2204.1,590.5,2231.6,605.9,2237.6z"/>
	<path class="st9" d="M791.9,2378.8c29.6,6,59.9,12.1,65.5,31c6.8,23.3-31.8,39.4-62,96.5c-11.1,20.9-40.9,77.1-20.7,110.2
		c26.7,43.9,124.9,20.9,127.5,37.9c1.6,10.6-34.3,32.7-75.8,34.5c-61.7,2.6-77.4-42.5-137.8-41.3c-50.8,0.9-89.2,33.7-93,27.6
		c-4-6.5,48.1-29.5,48.2-62c0.1-31.2-47.8-41-117.1-103.4c-46.8-42.2-71.7-79.8-68.9-82.7c3.7-3.7,46.2,58,93,51.7
		c39.7-5.4,36.7-53.4,93-86.1C699.6,2360.1,762.1,2372.8,791.9,2378.8z"/>
	<path class="st9" d="M499.1,2902.4c-1.9,39.1-3.4,71-5.5,97.6H0v-566.2c19.6-2.8,38.7,3.9,58.5,14.6
		c52.3,28.3,109.7,84.8,195.9,68.2c58.3-11.2,107-51.3,117.9-48.8c0,0,0,0,0,0c0.7,0.2,1.2,0.5,1.6,1c0,0,0,0,0,0.1
		c7.1,10-70.9,55.1-64.3,102.8c7.4,54.4,115.1,42.3,169.3,123.7c0,0,0,0,0,0C507,2737.6,504.4,2792.6,499.1,2902.4z"/>
	<path class="st9" d="M1709.1,308c-34.5-4.7-98.3,89.1-85.4,174.2c9.2,60.4,51.9,82.9,38.8,106.5c-14.3,26-77.5,19.7-172.3,10.2
		c-29.1-2.9-41.3-5.1-81.7-10.8c-127-17.8-190.9-26.4-211.7-13.7c-71.1,43.5-72.5,213-17.1,242.5c8,4.3,25.7,10.1,112.7-34.2
		c151.1-76.9,168.1-130.2,231.8-126.7c71.7,3.9,90.8,73.7,154.2,61.9c38.4-7.2,36.4-33.9,99-75.1c78.6-51.8,123.9-37.4,140-75.1
		c17.1-40.2-16.9-97.1-43.9-125.6c-44.5-46.9-89.4-37.6-133.6-96.4C1722.1,322.1,1721.1,309.6,1709.1,308z"/>
	<path class="st9" d="M1561.2,0c-1.1,7.9-2.9,16.8-5.3,25.9c-2,7.4-4.5,15-7.4,22.5c-6.9,17.5-31.5,73.4-82,99
		c-6.2,3.1-12,5.4-17.8,7c-31.8,8.7-61.9-3.8-149.5-10.4c-98.9-7.5-148.4-11.2-177.6,10.2c-70.9,52-33.3,188.6-71.7,198.1
		c-18.9,4.7-41.1-25.4-64.2-56.6c-13.9-18.8-28.2-38-42.3-50.3c-11.3-9.8-22.5-15.3-33.5-12.6c-14.7,3.6-14.8,18.3-41,58.1
		c-20.7,31.4-43.4,56.8-61.5,74c-18.4,17.5-32.1,26.6-34,25c-2.9-2.5,26.7-26,30.7-62.1c0,0,0,0,0,0c3.2-28.4-10.9-52-28.4-73.5
		c-13.3-16.4-28.6-31.5-39.6-46.6c-35.6-49-41.2-118.1-31.5-181.8c1.3-8.8,3-17.4,4.8-25.9H1561.2z"/>
	<path class="st9" d="M2614.1,414c-9.2,14-22.7,28-37.6,38.6c-21.1,15.1-45.3,23.4-64.9,16c-35.1-13.3-19.7-63.5-61.5-129.8
		c-11.5-18.2-24.9-33.9-39-47.3c-17.9-17.1-36.9-30.5-54.4-41c-22-13.2-41.5-21.7-53.5-26.9c0,0-0.1,0-0.1,0
		c-29-12.6-56.8-20.2-80.7-25.6c-5-1.1-9.8-2.2-14.3-3.1c-34.8-7.2-58.1-10.3-58.5-20c-0.5-14,47.8-13.6,58.1-41
		c12-31.7-38.3-70.8-69.8-107.9c-7.5-8.8-13.9-17.4-18.2-25.9h183.2c8.9,12.9,13.8,23.3,15,25.9c0,0.1,0.1,0.1,0.1,0.2c0,0,0,0,0,0
		c3,6.7,5.3,12.9,6.9,18.6c5.2,18.4,4,32.7,2.5,46.4c-2,18.3-4.6,35.5,6.6,60c3,6.6,6.7,12.9,10.8,18.9
		c45.8,65.9,152.6,89.3,173.6,93.8c56.8,12.4,82.5,3.3,102.5,27.3C2646.6,322,2637.9,377.9,2614.1,414z"/>
</g>
<g id="roads" class="st10">
	<path class="st11" d="M1653.5,0c-2,9-4,17.6-6,25.9c-43.9,182.2-90.5,201-178.4,188.6c-34.8-4.9-76-14.6-126.1-21
		c-158.3-20.3-247.2,157.4-239.8,319.1c1.2,27.2,5.2,54,12.1,79.3c3.8,14.1,5.9,28.2,6.4,42.5c0.1,1.4,0.1,2.8,0.1,4.3
		c1.7,90-57,182.3-131.7,261.4c-22.3,23.6-46,46.1-70,67c-40.4,35.2-81.6,65.9-117.8,90.2c-127.2,85.3,173.9,195.8,323.9,316.5
		c10.7,8.6,20.5,17.2,29.5,25.9c6,5.8,11.5,11.6,16.6,17.5c1.9,2.2,3.8,4.6,5.6,7.2c48.7,68.8,54.9,249.9,63.2,431.3
		c0.2,4.4,0.4,8.8,0.6,13.2c3.1,67.4,6.7,134.3,13,195.2c8.3,80.3,21.5,149.9,44.6,195.6c17,33.5,39.4,54.2,69.3,56.7
		c51,4.3,110.7,59.6,165.9,138.7c26.3,37.7,51.5,80.8,74.2,126.5c50.8,101.9,89.2,216.5,99.2,311.3c4.2,40.1,3.3,76.6-3.8,107.2"/>
	<path class="st11" d="M1241.1,1855.7"/>
	<path class="st11" d="M0,2249.6c11,7.5,31.6,21.3,58.5,37.6c56.2,34.2,139.4,79.6,217,101.9c62.4,17.9,121.1,20.8,159.4-9
		c9.3-7.3,20.6-13.7,33.3-19.5c38-17,89.5-27.3,143.8-31.5c31.1-2.4,63.1-2.7,93.9-1.1h0c23.5,1.2,46.3,3.5,67.6,6.8h0
		c96.9,15.3,161.6,52.5,109.4,106.9c-29.9,31.2-28.6,71.6-8.3,112.3c4.9,9.9,11,19.8,18,29.5c19.3,26.8,45.8,52.8,75.9,75.2
		c26.5,19.7,55.8,36.6,85.5,48.9h0c8.6,3.6,17.3,6.8,25.9,9.5h0c57.1,18.2,112.9,17.2,149.5-16.2c0.1-0.1,0.1-0.1,0.2-0.1
		c45.5-41.4,168.1-145.1,304.9-245.7c47.9-35.2,97.5-70.1,146.2-101.8c68.2-44.4,134.5-82.6,191.4-106.8
		c24.4-10.4,47-18.2,67.4-22.8c43-9.8,75.7-5.4,92.7,18.8c8.3,11.9,12.8,28.7,12.8,50.9c0,62,17,93.4,44.1,104.5
		c15.7,6.5,34.8,6.2,55.9,1.1c52.8-12.5,118.7-54.5,177.6-94.9c1.7-1.2,3.4-2.4,5.2-3.6c5.7-3.9,11.3-7.8,16.8-11.6
		c49.6-34.5,91.8-64.8,113.2-70.2c75.9-19-15-277.1-152.1-273.8c0,0,0,0-0.1,0c-12.5,0.3-27.5-1.7-44.3-5.5
		c-78.2-17.7-196.3-75.9-296.7-137.4c-22.3-13.7-43.7-27.5-63.7-41.1c-13-8.8-25.3-17.6-36.9-26.1c-6.4-4.7-12.6-9.4-18.5-14
		c-50.6-39.5-80.5-72.7-70.8-87.5c1-1.5,1.8-3.1,2.4-4.9c17.5-50.1-108.8-202.7-21.9-253.1c12.7-7.3,29.8-12.5,52.7-14.9
		c2.6-0.3,5.2-0.6,7.8-1.1c6.8-1.2,13.8-3.1,20.8-5.5c10.5-3.7,21.1-8.7,31.9-15c40.7-23.6,82.3-64.4,120.3-113.2
		c0.1-0.1,0.2-0.2,0.3-0.4l0,0c30.5-39.2,58.8-83.6,82.3-128.5c72.8-138.5,101.6-281.6,18.5-292.2h0c-0.1,0-0.2,0-0.3,0
		c-25.1-3.1-62.5-9.1-107.6-16.2c-5.1-0.8-10.3-1.6-15.6-2.4c-11.9-1.9-24.3-3.8-37.2-5.7c-38.6-5.8-80.8-11.8-124.5-17
		c-31.3-3.8-63.4-7.1-95.5-9.8c-73.8-6.1-147.4-8.5-211.6-3.1c-124.4,10.6-213,50.6-197.1,149.6c2.8,17.3,4.3,35.9,4.6,55.5
		c0.4,27.6-1.5,57.1-5.4,88c-8.6,67.3-26.8,140.8-51.5,213.2c-0.4,1.2-0.8,2.4-1.2,3.6c-2.3,6.7-4.7,13.4-7.1,20.1v0
		c-13.6,37.5-28.8,74.4-45.2,109.7c-5.4,11.6-10.9,23-16.5,34.2c-40.9,81.6-87.9,152.3-134.7,198.3c-25.9,25.4-51.8,43.2-76.6,51.1
		c-12.4,3.9-24.5,5.4-36.2,4.1c-33.6-3.8-80.8-27-135.7-60.1c-24.3-14.6-50.1-31.1-76.9-48.7c-28-18.4-57.2-38-86.9-57.8
		c-34.3-22.9-69.4-46.1-104.3-68.1c-163.5-103.1-324.3-180.8-393.1-82.5c-21.4,30.5-47.3,60.9-75.1,90.9
		c-18.9,20.4-38.7,40.6-58.5,60.5c-0.4,0.4-0.8,0.8-1.2,1.2"/>
	<path class="st12" d="M690,0c-1.2,8.1-2.4,16.8-3.6,25.9c-5.7,41.8-12.1,93.5-17.1,146.4c-13,138.4-15.7,284.6,31,280.7
		c25.5-2.1,61.5-19,100-38.1c55.8-27.6,117.1-59.7,160.1-57.8c1,0,2,0.1,2.9,0.2c28.4,2.3,48.3,20.3,52.5,65.8
		c3.8,40.3,37.8,69.5,87.4,89.5c38.2,15.5,85.8,25.5,135.8,31.2c118.7,13.5,251.7,2.3,310.2-20.4c13-5,22.3-10.7,26.9-16.7
		c46-59.7,61.1-313.2,217.4-223.3h0c0,0,0.1,0,0.1,0.1c41,23.6,86.6,56.4,131,88.2c20,14.3,39.7,28.5,58.6,41.5
		c26.2,18.1,50.9,34.1,72.7,45.6c5,2.7,9.9,5.1,14.6,7.2c51.7,23.6,81.9,13.8,66.4-69.9c-3.1-16.8-6.7-35.5-10.6-55.5
		c-0.4-2-0.8-4-1.2-6c-14.3-72.7-32.5-162.3-45.3-247c-3.2-21-6-41.7-8.4-61.8c-1-8.8-2-17.4-2.8-25.9"/>
	<path class="st12" d="M2097.2,189.9c235.6,76.9,313.8,206.4,313.8,206.4s144.8,196,64.8,209.7c-80,13.7-264.9,11.4-223,81.9
		s47,201.4-20.3,212.2s-96.7,25.4-96.7,25.4"/>
	<path class="st12" d="M1966.7,401.7c0,0,41.6,190.9,0,192.9c-41.6,1.9-167.4,36.2-148.3,64.8s-51.7,99.2-13.7,104
		c0,0,129.2,163.2,79.8,162.2c-49.4-1-147.4,123.7-82.1,171.6c65.4,47.8,194.7,118.4,186.4,128.8"/>
	<path class="st12" d="M2071.3,1097c193.8,33.9,283,73.7,265.2,128.8c-17.9,55-136.2,105.5-78.8,176.7s250,123.8,81.1,144.4
		c-168.9,20.7-187.9,155.9-166.5,191.3s128.5,124.6,110.7,149.6c-17.9,25,6.6,11.2-25.3,57.3c-31.9,46.2-55.5,203.3-18.7,206.8
		c36.8,3.6,158.2,267.8,79.7,389.2s27.9,283.3,108.6,291.6c80.6,8.3,359.1-16.7,302-120.2s-183.8-224.9-136.5-242.8
		s136.5-242.8,90.1-257.1s-173.1-139-199-66.4"/>
	<path class="st12" d="M1774.8,1633.5c-306.8,64.2-341-140.5-306.8,64.2s150,251.6-8.1,307.1c-158.2,55.4-106.8,71.6-205,59.3
		l-286.2,34.3"/>
	<path class="st12" d="M1241.1,1253.2c0,0,243.8,120.4,201.2,205.7c-42.6,85.3,17.5,148.3,17.5,148.3"/>
	<path class="st12" d="M822.1,1174c0,0,3.6,259.6-50.3,256.9s-148.3,87.3-148.3,87.3s-104.5,240.2-25.6,292.1
		s511.8,237.2,324.1,348.1c-187.6,110.9-304.2,109.1-216,169.7"/>
	<path class="st12" d="M0,891.7c15.4,3.6,32.4,5.4,50.5,5.7c0,0,0,0,0,0c2.6,0,5.2,0.1,7.9,0c134.1-0.9,326.7-80.1,425.1-154.3
		c26-19.6,45.4-38.8,55.5-56.2c0,0,0,0,0,0c21-36.2,70.8-30.8,130-5.7c11.4,4.8,23.2,10.4,35.1,16.5c0,0,0,0,0,0
		c129.7,66.5,284,200.6,286,202.3c0,0,0,0,0,0"/>
	<path class="st12" d="M398.8,2397.7C606.5,2700,529.7,2691.4,606.5,2700c76.8,8.5,310.7,117.8,362.2-41.3"/>
	<path class="st12" d="M1706.1,2877.5c-502.5,48.5-590.6-19.7-590.6-19.7s-185-124.4-35.4-140.6s54.3-651.1,35.4-636.4"/>
	<path class="st12" d="M700.3,453c0,0-318,161.5-161.1,234"/>
	<path class="st12" d="M417.6,1379c0,0,125.5-119.3,54.8-282S340.7,824.7,340.7,824.7"/>
</g>
<path class="st13" d="M810.9,629.2C606,584.9,487,1045.3,534.6,1065.1c47.6,19.8,111.3,309.9,196.1,319.6s105.2,387.6-42.8,423
	s-404.1,128.5-326.3,241c77.8,112.4,106.4,439.1,187.3,449.6c81,10.5,666.7,234.3,676.2-22.9s251.7-398.6,442.6-426.7
	c190.9-28.1,411.4-183.9,230.2-451.9s-13.8-517.6,22.1-654.7s203.5-362.7,68.6-424.2s-540.5,18.4-539,54.1
	C1451.1,607.6,1015.8,673.5,810.9,629.2z"/>
</svg>
