<?xml version="1.0" encoding="utf-8"?>
<!-- Generator: Adobe Illustrator 20.1.0, SVG Export Plug-In . SVG Version: 6.00 Build 0)  -->
<svg version="1.1" xmlns="http://www.w3.org/2000/svg" xmlns:xlink="http://www.w3.org/1999/xlink" x="0px" y="0px"
	 viewBox="0 0 2000 3000" style="enable-background:new 0 0 2000 3000;" xml:space="preserve">
<style type="text/css">
	.st0{display:none;opacity:0.75;fill:#252525;}
	.st1{fill:#124B93;}
	.st2{fill:#1F5FAC;}
	.st3{display:none;}
	.st4{display:inline;fill:#115BAA;}
	.st5{display:inline;fill:#347DC1;}
	.st6{fill:#165CA9;}
	.st7{fill:#357DC1;}
	.st8{display:inline;fill:#124B93;}
	.st9{display:inline;fill:#1F5FAC;}
</style>
<g id="standard">
	<ellipse class="st0" cx="1000" cy="2903" rx="100" ry="50"/>
	<path class="st1" d="M550,927c0,248.5,201.5,450,450,450v1464c-55.2,0-100-44.8-100-100c0,0,0-368.8-204.8-695.4
		c-204.8-326.6-162.2-244.8-384-539.3c-182.8-242.8-207.8-479.1-210.9-554.5c-0.2-8.2-0.3-16.5-0.3-24.8c0-497.1,402.9-900,900-900
		v450C751.5,477,550,678.5,550,927z"/>
	<path class="st2" d="M1449.7,927c0,248.5-201.5,450-450,450v1464c55.2,0,100-44.8,100-100c0,0,0-368.8,204.8-695.4
		c204.8-326.6,162.2-244.8,384-539.3c182.8-242.8,207.8-479.1,210.9-554.5c0.2-8.2,0.3-16.5,0.3-24.8c0-497.1-402.9-900-900-900v450
		C1248.2,477,1449.7,678.5,1449.7,927z"/>
	<g id="small_x5F_circle" class="st3">
		<path class="st4" d="M600,927c0,220.9,179.1,400,400,400v50c-248.5,0-450-201.5-450-450s201.5-450,450-450v50
			C779.1,527,600,706.1,600,927z"/>
		<path class="st5" d="M1399.7,927c0,220.9-179.1,400-400,400v50c248.5,0,450-201.5,450-450s-201.5-450-450-450v50
			C1220.6,527,1399.7,706.1,1399.7,927z"/>
	</g>
	<g id="large_x5F_cicle">
		<path class="st6" d="M1000,527V427c-276.1,0-500,223.9-500,500s223.9,500,500,500v-100c-220.9,0-400-179.1-400-400
			S779.1,527,1000,527z"/>
		<path class="st7" d="M1400,927c0,220.9-179.1,400-400,400v100c276.1,0,500-223.9,500-500s-223.9-500-500-500v100
			C1220.9,527,1400,706.1,1400,927z"/>
	</g>
</g>
<g id="other" class="st3">
	<path class="st8" d="M1000.2,49v300.3h-0.3c-331.2,0.2-599.7,268.7-599.7,600c0,331.3,268.5,599.8,599.7,600h0.3V2863h-0.3
		c-55.1-0.2-99.7-44.9-99.7-100c0,0,0-368.8-204.8-695.4c-204.8-326.6-162.2-244.8-384-539.3c-182.8-242.8-207.8-479.1-210.9-554.5
		c-0.2-8.2-0.3-16.5-0.3-24.8c0-497,402.8-899.8,899.7-900H1000.2z"/>
	<path class="st9" d="M1899.8,949c0,8.3-0.1,16.6-0.3,24.8c-3.1,75.5-28.1,311.7-210.9,554.5c-221.8,294.5-179.2,212.7-384,539.3
		c-204.8,326.6-204.8,695.4-204.8,695.4c0,55.1-44.6,99.8-99.7,100h-0.3V1549.3h0.3c331.4,0,600-268.6,600-600
		c0-331.4-268.6-600-600-600h-0.3V49h0.3C1497.1,49.2,1899.8,452,1899.8,949z"/>
	<path class="st5" d="M1000.2,299.3h-0.3c-359,0-650,291-650,650c0,359,291,650,650,650h0.3c358.8-0.2,649.7-291.1,649.7-650
		C1649.8,590.5,1359,299.5,1000.2,299.3z M1000.2,1549.3h-0.3c-331.2-0.2-599.7-268.7-599.7-600c0-331.3,268.5-599.8,599.7-600h0.3
		c331.4,0,600,268.6,600,600C1600.2,1280.7,1331.5,1549.3,1000.2,1549.3z"/>
</g>
</svg>
