<?xml version="1.0" encoding="utf-8"?>
<!-- Generator: Adobe Illustrator 20.1.0, SVG Export Plug-In . SVG Version: 6.00 Build 0)  -->
<svg version="1.1" xmlns="http://www.w3.org/2000/svg" xmlns:xlink="http://www.w3.org/1999/xlink" x="0px" y="0px"
	 viewBox="0 0 2000 2000" style="enable-background:new 0 0 2000 2000;" xml:space="preserve">
<style type="text/css">
	.st0{display:none;fill:#252525;}
	.st1{fill:#104D92;}
	.st2{display:none;}
	.st3{display:inline;}
	.st4{fill:#FFFFFF;}
	.st5{fill:#377DC1;}
	.st6{display:inline;fill:#FFFFFF;}
</style>
<g id="background">
	<circle class="st0" cx="1000" cy="1000" r="900"/>
	<rect class="st1" width="2000" height="2000"/>
</g>
<g id="routes" class="st2">
	<g class="st3">
		<path class="st4" d="M1000,632.6L1000,632.6c-90.3,0-163.4,73.2-163.4,163.4c0,1.5,0,3,0.1,4.5c0.6,13.7,5.1,56.6,38.3,100.7
			c5.5,7.4,10.2,13.4,14.1,18.6c19.6,25.4,22.9,28.3,39.1,53.3c4.4,6.8,9.7,15.1,16.5,26c37.2,59.3,37.2,126.3,37.2,126.3
			c0,10,8.1,18.1,18.1,18.2h0.1c10,0,18.1-8.2,18.1-18.2c0,0,0-67,37.2-126.3c6.8-10.9,12.1-19.3,16.5-26c16.2-25,19.5-28,39.1-53.3
			c4-5.1,8.6-11.2,14.1-18.6c33.2-44.1,37.7-87,38.3-100.7c0-1.5,0.1-3,0.1-4.5C1163.3,705.8,1090.2,632.7,1000,632.6z M1000,723.4
			c40.1,0,72.6,32.5,72.6,72.6c0,40.1-32.5,72.6-72.6,72.6c-40.1,0-72.6-32.5-72.6-72.6C927.3,755.9,959.9,723.4,1000,723.4z"/>
		<path class="st4" d="M1380.6,1314l-125.8-340.9l-19.7-53.3h-106.8c-23.1,30.4-29.2,36.8-40.5,53.3h110.1l125.8,340.9H676.5
			l125.8-340.9h109.7c-11.4-16.6-17.5-23-40.5-53.3H765.2l-19.7,53.3L619.7,1314l-19.7,53.3h800v-0.8L1380.6,1314z"/>
	</g>
</g>
<g id="menu" class="st2">
	<g class="st3">
		<path class="st4" d="M1270,890H730c-16.6,0-30-13.4-30-30l0,0c0-16.6,13.4-30,30-30h540c16.6,0,30,13.4,30,30l0,0
			C1300,876.6,1286.6,890,1270,890z"/>
		<path class="st4" d="M1270,1030H730c-16.6,0-30-13.4-30-30v0c0-16.6,13.4-30,30-30h540c16.6,0,30,13.4,30,30v0
			C1300,1016.6,1286.6,1030,1270,1030z"/>
		<path class="st4" d="M1270,1170H730c-16.6,0-30-13.4-30-30l0,0c0-16.6,13.4-30,30-30h540c16.6,0,30,13.4,30,30l0,0
			C1300,1156.6,1286.6,1170,1270,1170z"/>
	</g>
</g>
<g id="profile" class="st2">
	<g class="st3">
		<g>
			<circle class="st4" cx="1000" cy="833.6" r="103.7"/>
			<circle class="st4" cx="1000" cy="833.6" r="103.7"/>
			<circle class="st4" cx="1000" cy="833.6" r="103.7"/>
			<circle class="st4" cx="1000" cy="833.6" r="103.7"/>
			<path class="st4" d="M1258.6,1240.5c-78.2,19-165.9,29.6-258.6,29.6s-180.5-10.6-258.6-29.6c0.7-2.3,1.3-4.6,2-7
				c4.8-16.6,10-32.6,15.5-48.1c28.1-78.7,65.7-143,109.3-186.4c16.5-16.4,33.9-29.9,51.9-40c0.2-0.1,0.4-0.2,0.7-0.4
				c1.7,1.1,3.3,2.1,5.1,3.1c21.8,12.7,47.2,19.9,74.2,19.9s52.4-7.2,74.2-19.9c1.7-1,3.4-2,5.1-3.1c0.2,0.1,0.4,0.2,0.7,0.4
				c18.1,10.1,35.4,23.5,51.9,40c43.6,43.4,81.1,107.8,109.3,186.4c5.5,15.5,10.7,31.5,15.5,48.1
				C1257.3,1235.9,1258,1238.2,1258.6,1240.5z"/>
		</g>
		<g>
			<circle class="st4" cx="777.8" cy="885.6" r="71.3"/>
			<circle class="st4" cx="777.8" cy="885.6" r="71.3"/>
			<circle class="st4" cx="777.8" cy="885.6" r="71.3"/>
			<circle class="st4" cx="777.8" cy="885.6" r="71.3"/>
			<path class="st4" d="M722.3,1183.8c-43.3-2.9-84.4-9.3-122.3-18.5c0.5-1.6,0.9-3.2,1.4-4.8c26.4-91.3,70-160.1,121.9-188.9
				c15.8,10,34.5,15.8,54.5,15.8s38.7-5.8,54.5-15.8c7.1,3.9,14.1,8.6,20.9,14.1C802.2,1031,757.5,1099.3,722.3,1183.8z"/>
			<path class="st4" d="M955.6,1165.3c-53.7,13.1-114,20.4-177.8,20.4c-6.3,0-12.7-0.1-18.9-0.2c28.1-78.7,65.7-143,109.3-186.4
				c36,35.7,66,92.1,86.1,161.5C954.7,1162.1,955.1,1163.7,955.6,1165.3z"/>
		</g>
		<g>
			<circle class="st4" cx="1222.2" cy="885.6" r="71.3"/>
			<circle class="st4" cx="1222.2" cy="885.6" r="71.3"/>
			<circle class="st4" cx="1222.2" cy="885.6" r="71.3"/>
			<circle class="st4" cx="1222.2" cy="885.6" r="71.3"/>
			<path class="st4" d="M1131.9,999c43.6,43.4,81.1,107.8,109.3,186.4c-6.3,0.1-12.6,0.2-18.9,0.2c-63.7,0-124.1-7.3-177.8-20.4
				c0.5-1.6,0.9-3.2,1.4-4.8C1065.9,1091.2,1095.8,1034.8,1131.9,999z"/>
			<path class="st4" d="M1400,1165.3c-37.9,9.2-79,15.5-122.3,18.5c-35.2-84.6-79.9-152.8-130.8-198.1c6.8-5.4,13.7-10.1,20.9-14.1
				c15.8,10,34.5,15.8,54.5,15.8c20,0,38.7-5.8,54.5-15.8c51.9,28.8,95.5,97.7,121.9,188.9C1399.1,1162.1,1399.5,1163.7,1400,1165.3
				z"/>
		</g>
	</g>
</g>
<g id="profile_x5F_picture">
	<g>
		<g>
			<circle class="st5" cx="1000" cy="833.6" r="103.7"/>
			<circle class="st5" cx="1000" cy="833.6" r="103.7"/>
			<circle class="st5" cx="1000" cy="833.6" r="103.7"/>
			<circle class="st5" cx="1000" cy="833.6" r="103.7"/>
			<path class="st5" d="M1258.6,1240.5c-78.2,19-165.9,29.6-258.6,29.6s-180.5-10.6-258.6-29.6c0.7-2.3,1.3-4.6,2-7
				c4.8-16.6,10-32.6,15.5-48.1c28.1-78.7,65.7-143,109.3-186.4c16.5-16.4,33.9-29.9,51.9-40c0.2-0.1,0.4-0.2,0.7-0.4
				c1.7,1.1,3.3,2.1,5.1,3.1c21.8,12.7,47.2,19.9,74.2,19.9s52.4-7.2,74.2-19.9c1.7-1,3.4-2,5.1-3.1c0.2,0.1,0.4,0.2,0.7,0.4
				c18.1,10.1,35.4,23.5,51.9,40c43.6,43.4,81.1,107.8,109.3,186.4c5.5,15.5,10.7,31.5,15.5,48.1
				C1257.3,1235.9,1258,1238.2,1258.6,1240.5z"/>
		</g>
	</g>
</g>
<g id="close" class="st2">
	<path class="st6" d="M1337.6,999c0,188.3-148.8,338.1-337.1,338.1c-187.3,0-338.1-149.8-338.1-338.1c0-186.2,150.8-336,338.1-336
		C1188.8,662.9,1337.6,812.7,1337.6,999z M1174.3,894.9l-70.7-69.7l-103,104L895.4,824.2l-69.7,70.7l105.1,104l-105.1,104l69.7,70.7
		l105.1-105.1l103,104l70.7-69.7l-104-104L1174.3,894.9z"/>
</g>
</svg>
