<?xml version="1.0" encoding="utf-8"?>
<!-- Generator: Adobe Illustrator 20.1.0, SVG Export Plug-In . SVG Version: 6.00 Build 0)  -->
<svg version="1.1" xmlns="http://www.w3.org/2000/svg" xmlns:xlink="http://www.w3.org/1999/xlink" x="0px" y="0px"
	 viewBox="0 0 2000 2000" style="enable-background:new 0 0 2000 2000;" xml:space="preserve">
<style type="text/css">
	.st0{fill:#4497D2;}
	.st1{fill:#64B8E7;}
	.st2{fill:#48A6DD;}
	.st3{fill:#75C1EB;}
	.st4{fill:#74CDF4;}
	.st5{fill:#76C043;}
	.st6{fill:#7FC342;}
	.st7{fill:#46AF48;}
	.st8{fill:#94C952;}
	.st9{fill:#FDB615;}
	.st10{fill:#FCD511;}
	.st11{fill:#FAA21B;}
	.st12{fill:#EE3125;}
	.st13{fill:#EC4325;}
	.st14{fill:#EC5627;}
	.st15{display:none;}
	.st16{display:inline;fill:#4497D2;}
	.st17{display:inline;fill:#48A6DD;}
	.st18{display:inline;fill:#47AF48;}
	.st19{display:inline;fill:#75C1EB;}
	.st20{display:inline;fill:#49A6DD;}
	.st21{display:inline;fill:#74CDF4;}
	.st22{display:inline;fill:#64B8E7;}
	.st23{display:inline;fill:#76C1EB;}
	.st24{display:inline;fill:#76C043;}
	.st25{display:inline;fill:#7FC342;}
	.st26{display:inline;fill:#46AF48;}
	.st27{display:inline;fill:#94C952;}
	.st28{display:inline;fill:#FDB615;}
	.st29{display:inline;fill:#FCD511;}
	.st30{display:inline;fill:#FAA21B;}
	.st31{display:inline;fill:#EE3125;}
	.st32{display:inline;fill:#FAA21E;}
	.st33{display:inline;fill:#EC4325;}
	.st34{display:inline;fill:#EC5627;}
	.st35{display:inline;fill:#FFFFFF;}
</style>
<g id="background">
	
		<rect x="1112.4" y="1698.3" transform="matrix(0.7071 0.7071 -0.7071 0.7071 1651.7086 -340.9442)" class="st0" width="250" height="250"/>
	
		<rect x="-125" y="1875.1" transform="matrix(0.7071 -0.7071 0.7071 0.7071 -1414.2874 585.795)" class="st1" width="250" height="250"/>
	
		<rect x="1996.3" y="1521.5" transform="matrix(0.7071 -0.7071 0.7071 0.7071 -542.967 1982.2418)" class="st1" width="250" height="250"/>
	
		<rect x="228.5" y="1521.5" transform="matrix(0.7071 0.7071 -0.7071 0.7071 1267.8252 232.2791)" class="st0" width="250" height="250"/>
	
		<rect x="405.3" y="1698.3" transform="matrix(0.7071 0.7071 -0.7071 0.7071 1444.6018 159.0558)" class="st2" width="250" height="250"/>
	
		<rect x="935.6" y="1875.1" transform="matrix(0.7071 0.7071 -0.7071 0.7071 1724.9319 -164.1674)" class="st2" width="250" height="250"/>
	
		<rect x="1819.5" y="1344.8" transform="matrix(0.7071 0.7071 -0.7071 0.7071 1608.8154 -944.4976)" class="st3" width="250" height="250"/>
	
		<rect x="1642.7" y="1875.1" transform="matrix(0.7071 0.7071 -0.7071 0.7071 1932.0387 -664.1675)" class="st0" width="250" height="250"/>
	
		<rect x="-125" y="1168" transform="matrix(0.7071 0.7071 -0.7071 0.7071 914.2726 378.7254)" class="st3" width="250" height="250"/>
	
		<rect x="1466" y="1344.8" transform="matrix(0.7071 0.7071 -0.7071 0.7071 1505.2621 -694.4976)" class="st2" width="250" height="250"/>
	
		<rect x="582.1" y="1521.5" transform="matrix(0.7071 0.7071 -0.7071 0.7071 1371.3785 -17.7209)" class="st3" width="250" height="250"/>
	
		<rect x="1289.2" y="1875.1" transform="matrix(0.7071 0.7071 -0.7071 0.7071 1828.4854 -414.1674)" class="st0" width="250" height="250"/>
	
		<rect x="582.1" y="1875.1" transform="matrix(0.7071 0.7071 -0.7071 0.7071 1621.3785 85.8325)" class="st0" width="250" height="250"/>
	
		<rect x="1289.2" y="1168" transform="matrix(0.7071 0.7071 -0.7071 0.7071 1328.4861 -621.2733)" class="st4" width="250" height="250"/>
	
		<rect x="1642.7" y="1521.5" transform="matrix(0.7071 0.7071 -0.7071 0.7071 1682.0387 -767.7209)" class="st4" width="250" height="250"/>
	
		<rect x="935.6" y="1521.5" transform="matrix(0.7071 -0.7071 0.7071 0.7071 -853.6271 1232.2416)" class="st1" width="250" height="250"/>
	
		<rect x="228.5" y="1875.1" transform="matrix(0.7071 0.7071 -0.7071 0.7071 1517.8252 335.8326)" class="st0" width="250" height="250"/>
	
		<rect x="1996.3" y="1875.1" transform="matrix(0.7071 0.7071 -0.7071 0.7071 2035.592 -914.1675)" class="st0" width="250" height="250"/>
	
		<rect x="1466" y="1698.3" transform="matrix(0.7071 0.7071 -0.7071 0.7071 1755.262 -590.9442)" class="st2" width="250" height="250"/>
	
		<rect x="51.8" y="1698.3" transform="matrix(0.7071 0.7071 -0.7071 0.7071 1341.0485 409.0558)" class="st2" width="250" height="250"/>
	
		<rect x="-125" y="1521.5" transform="matrix(0.7071 0.7071 -0.7071 0.7071 1164.2717 482.2791)" class="st2" width="250" height="250"/>
	
		<rect x="758.9" y="1344.8" transform="matrix(0.7071 0.7071 -0.7071 0.7071 1298.1553 -194.4975)" class="st2" width="250" height="250"/>
	
		<rect x="1289.2" y="1521.5" transform="matrix(0.7071 0.7071 -0.7071 0.7071 1578.4854 -517.7209)" class="st3" width="250" height="250"/>
	
		<rect x="1819.5" y="1698.3" transform="matrix(0.7071 -0.7071 0.7071 0.7071 -719.7436 1909.0183)" class="st1" width="250" height="250"/>
	
		<rect x="758.9" y="1698.3" transform="matrix(0.7071 0.7071 -0.7071 0.7071 1548.1553 -90.9442)" class="st2" width="250" height="250"/>
	
		<rect x="51.8" y="1344.8" transform="matrix(0.7071 0.7071 -0.7071 0.7071 1091.0485 305.5026)" class="st4" width="250" height="250"/>
	
		<rect x="405.3" y="1344.8" transform="matrix(0.7071 0.7071 -0.7071 0.7071 1194.6019 55.5026)" class="st5" width="250" height="250"/>
	
		<rect x="228.5" y="1168" transform="matrix(0.7071 0.7071 -0.7071 0.7071 1017.8253 128.7258)" class="st6" width="250" height="250"/>
	
		<rect x="935.6" y="1168" transform="matrix(0.7071 0.7071 -0.7071 0.7071 1224.932 -371.274)" class="st5" width="250" height="250"/>
	
		<rect x="582.1" y="1168" transform="matrix(0.7071 0.7071 -0.7071 0.7071 1121.3761 -121.2732)" class="st7" width="250" height="250"/>
	
		<rect x="1642.7" y="1168" transform="matrix(0.7071 0.7071 -0.7071 0.7071 1432.0389 -871.2737)" class="st7" width="250" height="250"/>
	
		<rect x="1819.5" y="991.2" transform="matrix(0.7071 0.7071 -0.7071 0.7071 1358.8195 -1048.0414)" class="st6" width="250" height="250"/>
	
		<rect x="1996.3" y="1168" transform="matrix(0.7071 0.7071 -0.7071 0.7071 1535.593 -1121.2748)" class="st6" width="250" height="250"/>
	
		<rect x="1112.4" y="991.2" transform="matrix(0.7071 0.7071 -0.7071 0.7071 1151.6796 -548.0389)" class="st7" width="250" height="250"/>
	
		<rect x="1465.9" y="991.2" transform="matrix(0.7071 0.7071 -0.7071 0.7071 1255.2646 -798.0379)" class="st6" width="250" height="250"/>
	
		<rect x="1112.4" y="1344.8" transform="matrix(0.7071 0.7071 -0.7071 0.7071 1401.7073 -444.4941)" class="st4" width="250" height="250"/>
	
		<rect x="405.3" y="991.2" transform="matrix(0.7071 0.7071 -0.7071 0.7071 944.6017 -48.0512)" class="st8" width="250" height="250"/>
	
		<rect x="1642.7" y="814.5" transform="matrix(0.7071 0.7071 -0.7071 0.7071 1182.0497 -974.7943)" class="st8" width="250" height="250"/>
	
		<rect x="1819.3" y="637.9" transform="matrix(0.7071 0.7071 -0.7071 0.7071 1108.901 -1151.3987)" class="st7" width="250" height="250"/>
	
		<rect x="1996.3" y="814.4" transform="matrix(0.7071 0.7071 -0.7071 0.7071 1285.5929 -1224.8259)" class="st6" width="250" height="250"/>
	
		<rect x="51.8" y="991.2" transform="matrix(0.7071 0.7071 -0.7071 0.7071 841.0488 201.9476)" class="st7" width="250" height="250"/>
	
		<rect x="935.6" y="814.5" transform="matrix(0.7071 0.7071 -0.7071 0.7071 974.9443 -474.7977)" class="st7" width="250" height="250"/>
	
		<rect x="1289.1" y="814.5" transform="matrix(0.7071 0.7071 -0.7071 0.7071 1078.4807 -724.7565)" class="st6" width="250" height="250"/>
	
		<rect x="758.9" y="991.2" transform="matrix(0.7071 0.7071 -0.7071 0.7071 1048.1432 -298.0801)" class="st6" width="250" height="250"/>
	
		<rect x="-125" y="814.4" transform="matrix(0.7071 0.7071 -0.7071 0.7071 664.2744 275.1714)" class="st5" width="250" height="250"/>
	
		<rect x="228.5" y="814.4" transform="matrix(0.7071 0.7071 -0.7071 0.7071 767.8248 25.1722)" class="st9" width="250" height="250"/>
	
		<rect x="1112.3" y="637.7" transform="matrix(0.7071 0.7071 -0.7071 0.7071 901.7192 -651.5396)" class="st9" width="250" height="250"/>
	
		<rect x="51.6" y="637.8" transform="matrix(0.7071 0.7071 -0.7071 0.7071 591.1044 98.5234)" class="st10" width="250" height="250"/>
	
		<rect x="758.7" y="637.8" transform="matrix(0.7071 0.7071 -0.7071 0.7071 798.2097 -401.4729)" class="st10" width="250" height="250"/>
	
		<rect x="1642.5" y="461.1" transform="matrix(0.7071 0.7071 -0.7071 0.7071 932.0948 -1078.1632)" class="st10" width="250" height="250"/>
	
		<rect x="582.2" y="814.5" transform="matrix(0.7071 0.7071 -0.7071 0.7071 871.4256 -224.8813)" class="st11" width="250" height="250"/>
	
		<rect x="1465.7" y="637.9" transform="matrix(0.7071 0.7071 -0.7071 0.7071 1005.3303 -901.3571)" class="st11" width="250" height="250"/>
	
		<rect x="228" y="461.4" transform="matrix(0.7071 0.7071 -0.7071 0.7071 518.043 -77.8624)" class="st11" width="250" height="250"/>
	
		<rect x="405.3" y="637.7" transform="matrix(0.7071 0.7071 -0.7071 0.7071 694.6231 -151.5553)" class="st10" width="250" height="250"/>
	
		<rect x="1820.1" y="285.2" transform="matrix(0.7071 0.7071 -0.7071 0.7071 859.7357 -1255.2319)" class="st9" width="250" height="250"/>
	
		<rect x="1996.3" y="461.4" transform="matrix(0.7071 0.7071 -0.7071 0.7071 1035.9609 -1328.2268)" class="st11" width="250" height="250"/>
	
		<rect x="935.1" y="461.4" transform="matrix(0.7071 0.7071 -0.7071 0.7071 725.1483 -577.8587)" class="st9" width="250" height="250"/>
	
		<rect x="1289.3" y="461.1" transform="matrix(0.7071 0.7071 -0.7071 0.7071 828.6564 -828.4406)" class="st10" width="250" height="250"/>
	
		<rect x="-124.8" y="461.4" transform="matrix(0.7071 0.7071 -0.7071 0.7071 414.7186 171.5848)" class="st9" width="250" height="250"/>
	
		<rect x="581.6" y="461.4" transform="matrix(0.7071 0.7071 -0.7071 0.7071 621.5947 -327.8583)" class="st11" width="250" height="250"/>
	
		<rect x="-125.5" y="107.9" transform="matrix(0.7071 0.7071 -0.7071 0.7071 164.4954 68.5819)" class="st12" width="250" height="250"/>
	
		<rect x="1467" y="285.2" transform="matrix(0.7071 0.7071 -0.7071 0.7071 756.3348 -1005.6)" class="st12" width="250" height="250"/>
	
		<rect x="1995.9" y="109.3" transform="matrix(0.7071 0.7071 -0.7071 0.7071 786.8982 -1431.0773)" class="st12" width="250" height="250"/>
	
		<rect x="51.6" y="283.9" transform="matrix(0.7071 0.7071 -0.7071 0.7071 340.881 -5.1225)" class="st13" width="250" height="250"/>
	
		<rect x="758.9" y="285.2" transform="matrix(0.7071 0.7071 -0.7071 0.7071 548.923 -504.8638)" class="st13" width="250" height="250"/>
	
		<rect x="1111.3" y="285.3" transform="matrix(0.7071 0.7071 -0.7071 0.7071 652.2389 -754.0448)" class="st13" width="250" height="250"/>
	
		<rect x="1817.4" y="-65.2" transform="matrix(0.7071 0.7071 -0.7071 0.7071 611.2047 -1355.9751)" class="st12" width="250" height="250"/>
	
		<rect x="404.8" y="284.6" transform="matrix(0.7071 0.7071 -0.7071 0.7071 444.8209 -254.6362)" class="st12" width="250" height="250"/>
	
		<rect x="581.6" y="108.9" transform="matrix(0.7071 0.7071 -0.7071 0.7071 372.3077 -431.1216)" class="st14" width="250" height="250"/>
	
		<rect x="1642.5" y="109.7" transform="matrix(0.7071 0.7071 -0.7071 0.7071 683.6521 -1181.0715)" class="st14" width="250" height="250"/>
	
		<rect x="934.8" y="108.7" transform="matrix(0.7071 0.7071 -0.7071 0.7071 475.6828 -680.9128)" class="st12" width="250" height="250"/>
	
		<rect x="404.9" y="-67.4" transform="matrix(0.7071 0.7071 -0.7071 0.7071 195.9606 -357.8198)" class="st12" width="250" height="250"/>
	
		<rect x="50.7" y="-68.4" transform="matrix(0.7071 0.7071 -0.7071 0.7071 91.5031 -107.6371)" class="st14" width="250" height="250"/>
	
		<rect x="1288.7" y="109.7" transform="matrix(0.7071 0.7071 -0.7071 0.7071 580.0304 -930.9067)" class="st14" width="250" height="250"/>
	
		<rect x="1465.7" y="-67.1" transform="matrix(0.7071 0.7071 -0.7071 0.7071 506.846 -1107.8361)" class="st13" width="250" height="250"/>
	
		<rect x="1642.5" y="-242.8" transform="matrix(0.7071 0.7071 -0.7071 0.7071 434.4218 -1284.3062)" class="st12" width="250" height="250"/>
	
		<rect x="1111.3" y="-63.2" transform="matrix(0.7071 0.7071 -0.7071 0.7071 405.8137 -856.1174)" class="st12" width="250" height="250"/>
	
		<rect x="1287.9" y="-239.8" transform="matrix(0.7071 0.7071 -0.7071 0.7071 332.6813 -1032.6746)" class="st13" width="250" height="250"/>
	
		<rect x="760.8" y="-65.2" transform="matrix(0.7071 0.7071 -0.7071 0.7071 301.7411 -608.8638)" class="st13" width="250" height="250"/>
	
		<rect x="226.8" y="108.7" transform="matrix(0.7071 0.7071 -0.7071 0.7071 268.3053 -180.3357)" class="st12" width="250" height="250"/>
	
		<rect x="935.4" y="-241.6" transform="matrix(0.7071 0.7071 -0.7071 0.7071 228.1064 -783.9395)" class="st12" width="250" height="250"/>
	
		<rect x="583.3" y="-241.8" transform="matrix(0.7071 0.7071 -0.7071 0.7071 124.8869 -535.0226)" class="st13" width="250" height="250"/>
	
		<rect x="230.7" y="-241.6" transform="matrix(0.7071 0.7071 -0.7071 0.7071 21.7041 -285.6404)" class="st13" width="250" height="250"/>
	
		<rect x="-125" y="-245.2" transform="matrix(0.7071 0.7071 -0.7071 0.7071 -84.9892 -35.1817)" class="st13" width="250" height="250"/>
</g>
<g id="background2" class="st15">
	<path class="st16" d="M1396.1,1808.3c-83.7,41.1-174.7,69.6-270.6,83l-65.5-65.5l176.8-176.8L1396.1,1808.3z"/>
	<path class="st16" d="M529.7,1649l-70.5,70.5c-66.9-50.3-126.5-109.8-177-176.5l70.7-70.7L529.7,1649z"/>
	<path class="st17" d="M706.5,1825.8l-18.6,18.6c-82.6-30.5-159.5-72.9-228.7-124.9l70.5-70.5L706.5,1825.8z"/>
	<path class="st17" d="M1125.6,1891.3c-41,5.7-83,8.7-125.6,8.7c-4.7,0-9.4,0-14.1-0.1l74.1-74.1L1125.6,1891.3z"/>
	<path class="st18" d="M176.2,1295.5l-19.5,19.5c-7.2-19.2-13.7-38.8-19.6-58.6L176.2,1295.5z"/>
	<polygon class="st17" points="1767.1,1472.2 1764.9,1474.5 1590.4,1649 1413.6,1472.2 1590.3,1295.5 1590.3,1295.5 1590.4,1295.5 
		1766.6,1471.7 	"/>
	
		<rect x="581.5" y="1524" transform="matrix(0.7071 0.7071 -0.7071 0.7071 1372.9551 -16.5687)" class="st19" width="250" height="250"/>
	<path class="st20" d="M743.6,1863c-18.9-5.6-37.5-11.8-55.8-18.6l18.6-18.6L743.6,1863z"/>
	
		<rect x="1288.6" y="1170.5" transform="matrix(0.7071 0.7071 -0.7071 0.7071 1330.0626 -620.1212)" class="st21" width="250" height="250"/>
	<path class="st20" d="M1764.9,1474.5c-43.9,70.7-97.3,134.8-158.5,190.6l-16-16L1764.9,1474.5z"/>
	
		<rect x="935" y="1524" transform="matrix(0.7071 -0.7071 0.7071 0.7071 -855.5566 1232.5416)" class="st22" width="250" height="250"/>
	<path class="st23" d="M1606.4,1665.1c-40.7,37.1-84.9,70.6-131.9,99.9l115.9-115.9L1606.4,1665.1z"/>
	
		<rect x="758.3" y="1347.2" transform="matrix(0.7071 0.7071 -0.7071 0.7071 1299.7318 -193.3454)" class="st17" width="250" height="250"/>
	<path class="st19" d="M1590.4,1649l-115.9,115.9c-25.3,15.7-51.4,30.2-78.3,43.4L1236.8,1649l176.8-176.8L1590.4,1649z"/>
	<path class="st17" d="M1060,1825.8l-74.1,74.1c-84.1-1.3-165.3-14.1-242.3-36.9l-37.2-37.2L883.2,1649L1060,1825.8z"/>
	<path class="st21" d="M352.9,1472.2l-70.7,70.7c-52.2-68.9-94.7-145.6-125.5-228l19.5-19.5L352.9,1472.2z"/>
	
		<rect x="404.7" y="1347.2" transform="matrix(0.7071 0.7071 -0.7071 0.7071 1196.1785 56.6548)" class="st24" width="250" height="250"/>
	
		<rect x="227.9" y="1170.5" transform="matrix(0.7071 0.7071 -0.7071 0.7071 1019.4019 129.878)" class="st25" width="250" height="250"/>
	
		<rect x="935" y="1170.5" transform="matrix(0.7071 0.7071 -0.7071 0.7071 1226.5085 -370.1218)" class="st24" width="250" height="250"/>
	
		<rect x="581.5" y="1170.5" transform="matrix(0.7071 0.7071 -0.7071 0.7071 1122.9526 -120.121)" class="st26" width="250" height="250"/>
	<path class="st26" d="M1872,1223.6C1872,1223.6,1872,1223.6,1872,1223.6c-22.7,88.7-58.6,172.2-105.4,248.1l-176.3-176.2
		l176.8-176.8l0,0L1872,1223.6z"/>
	<path class="st25" d="M1900,1000c0,77.2-9.7,152.1-28,223.6c0,0,0,0,0,0l-104.9-104.9l132.8-132.8C1900,990.6,1900,995.3,1900,1000
		z"/>
	
		<rect x="1111.8" y="993.7" transform="matrix(0.7071 0.7071 -0.7071 0.7071 1153.2561 -546.8867)" class="st26" width="250" height="250"/>
	
		<rect x="1465.3" y="993.7" transform="matrix(0.7071 0.7071 -0.7071 0.7071 1256.8412 -796.8857)" class="st25" width="250" height="250"/>
	
		<rect x="1111.8" y="1347.2" transform="matrix(0.7071 0.7071 -0.7071 0.7071 1403.2838 -443.3419)" class="st21" width="250" height="250"/>
	
		<rect x="404.7" y="993.7" transform="matrix(0.7071 0.7071 -0.7071 0.7071 946.1783 -46.899)" class="st27" width="250" height="250"/>
	<path class="st27" d="M1893.5,891.6l-126.4-126.4l-0.2,0.2l-176.6,176.6l0,0l176.8,176.8l0,0h0l0,0l132.8-132.7c0,0,0,0,0,0
		c-0.5-31.7-2.6-63.1-6.3-93.9L1893.5,891.6z"/>
	<path class="st26" d="M1893.5,891.6c-8.5-70.8-25.2-139-49.1-203.7l-77.3,77.3l-0.2,0.2L1893.6,892L1893.5,891.6z"/>
	<path class="st26" d="M352.9,1118.7L352.9,1118.7l-176.8,176.8l-39.1-39.1c-22.5-75.8-35.2-155.8-36.9-238.5v0L176,942l0.1-0.1
		L352.9,1118.7L352.9,1118.7z"/>
	
		<rect x="935" y="816.9" transform="matrix(0.7071 0.7071 -0.7071 0.7071 976.5209 -473.6455)" class="st26" width="250" height="250"/>
	
		<rect x="1288.5" y="816.9" transform="matrix(0.7071 0.7071 -0.7071 0.7071 1080.0573 -723.6043)" class="st25" width="250" height="250"/>
	
		<rect x="758.3" y="993.7" transform="matrix(0.7071 0.7071 -0.7071 0.7071 1049.7197 -296.9279)" class="st25" width="250" height="250"/>
	<path class="st24" d="M176.2,941.9L176,942l-75.8,75.8c-0.1-5.9-0.2-11.9-0.2-17.9c0-42.5,3-84.4,8.7-125.3v0c0-0.1,0-0.1,0-0.2
		L176.2,941.9z"/>
	
		<rect x="227.9" y="816.9" transform="matrix(0.7071 0.7071 -0.7071 0.7071 769.4013 26.3244)" class="st28" width="250" height="250"/>
	
		<rect x="1111.7" y="640.2" transform="matrix(0.7071 0.7071 -0.7071 0.7071 903.2958 -650.3873)" class="st28" width="250" height="250"/>
	<path class="st29" d="M352.8,765.3l-0.4,0.4L176.2,941.9L176,942l-67.4-67.4v0c0-0.1,0-0.1,0-0.2c13.3-95.6,41.7-186.4,82.6-269.9
		c0.1-0.2,0.2-0.4,0.3-0.5L352.8,765.3z"/>
	
		<rect x="758.1" y="640.3" transform="matrix(0.7071 0.7071 -0.7071 0.7071 799.7863 -400.3207)" class="st29" width="250" height="250"/>
	<path class="st29" d="M1844.4,687.8l-77.5,77.5l-176.8-176.8l0.2-0.2h0l129.1-129.1c0.3,0.4,0.6,0.8,0.9,1.3
		C1772,529.3,1814,605.7,1844.4,687.8z"/>
	
		<rect x="581.6" y="816.9" transform="matrix(0.7071 0.7071 -0.7071 0.7071 873.0021 -223.7291)" class="st30" width="250" height="250"/>
	
		<rect x="1465.1" y="640.3" transform="matrix(0.7071 0.7071 -0.7071 0.7071 1006.9069 -900.2049)" class="st30" width="250" height="250"/>
	<path class="st30" d="M529.2,588.9L352.9,765.1l0,0l-0.1,0.1l-0.4,0.4L191.3,604.6c0.1-0.2,0.2-0.4,0.3-0.5
		c11.5-23.4,24-46.2,37.4-68.5l123.5-123.5l0,0L529.2,588.9z"/>
	
		<rect x="404.7" y="640.2" transform="matrix(0.7071 0.7071 -0.7071 0.7071 696.1996 -150.4031)" class="st29" width="250" height="250"/>
	
		<rect x="934.5" y="463.9" transform="matrix(0.7071 0.7071 -0.7071 0.7071 726.7249 -576.7065)" class="st28" width="250" height="250"/>
	
		<rect x="1288.7" y="463.5" transform="matrix(0.7071 0.7071 -0.7071 0.7071 830.233 -827.2885)" class="st29" width="250" height="250"/>
	
		<rect x="581" y="463.9" transform="matrix(0.7071 0.7071 -0.7071 0.7071 623.1713 -326.7061)" class="st30" width="250" height="250"/>
	<path class="st31" d="M1719.5,459.2c0.3,0.4,0.6,0.8,0.9,1.3l-129,129l-1.1-1.1h0l-175.7-175.7l129.5-129.5
		C1610.4,333.4,1669.4,392.8,1719.5,459.2z"/>
	<path class="st32" d="M352.8,411.4l-1.6,1.6L229.4,534.8c30.2-49.9,65.1-96.6,104.1-139.6c0.5-0.5,1-1.1,1.5-1.6L352.8,411.4z"/>
	
		<rect x="758.3" y="287.7" transform="matrix(0.7071 0.7071 -0.7071 0.7071 550.4996 -503.7116)" class="st33" width="250" height="250"/>
	
		<rect x="1110.7" y="287.8" transform="matrix(0.7071 0.7071 -0.7071 0.7071 653.8154 -752.8926)" class="st33" width="250" height="250"/>
	
		<rect x="404.2" y="287.1" transform="matrix(0.7071 0.7071 -0.7071 0.7071 446.3975 -253.484)" class="st31" width="250" height="250"/>
	<path class="st34" d="M882.7,236.3l-0.1,0.1L706,413.1L529.2,236.3l8.9-8.9c0.6-0.3,1.1-0.7,1.7-1c72.3-43.1,151.2-76.4,234.8-97.9
		c0.1,0,0.1,0,0.2-0.1l107.7,107.7L882.7,236.3z"/>
	<path class="st31" d="M1235.7,236l-129.8-129.8c-1.9-0.2-3.8-0.5-5.7-0.7c-25.1-2.8-50.5-4.5-76.2-5.2c-1.8,0-3.7-0.1-5.5-0.1
		l-136,136l0.2,0.2l0,0v0l2.6,2.6l173.7,173.7l0.1,0.1l0.2,0.2l0.6-0.6v0l176.2-176.2L1235.7,236z"/>
	<path class="st31" d="M538.1,227.4c0.6-0.3,1.1-0.7,1.7-1l-9.8,9.8l-0.7,0.7l-0.8-0.8l-1.7-1.7C530.5,232,534.3,229.7,538.1,227.4z
		"/>
	<path class="st34" d="M1544.1,283l-129.5,129.5l-1.4,1.4l-0.8-0.8l-0.1-0.1L1238,238.8l-1.6-1.6l0.3-0.3l79.7-79.7
		c0.8,0.3,1.6,0.6,2.4,0.9C1400.1,188.9,1475.9,231.2,1544.1,283z"/>
	<path class="st31" d="M1318.7,158.1l-80.5,80.5l-0.3,0.3l-2.2,2.2l-2.3-2.3l-0.2-0.2l-133-133c1.9,0.2,3.8,0.4,5.7,0.7
		c73.2,8.6,143.7,25.9,210.5,51C1317.1,157.5,1317.9,157.8,1318.7,158.1z"/>
	<path class="st33" d="M1024,100.3L885.8,238.5l-0.6,0.6L774.6,128.5c0.1,0,0.1,0,0.2-0.1c72-18.5,147.4-28.4,225.2-28.4
		c6.2,0,12.3,0.1,18.4,0.2C1020.3,100.2,1022.1,100.3,1024,100.3z"/>
	<path class="st31" d="M528,236.2L352.8,411.4l-1.6,1.6l-17.8-17.8c0.5-0.5,1-1.1,1.5-1.6c56-61.4,120.4-115,191.4-159L528,236.2z"
		/>
</g>
<g id="bike" class="st15">
	<path class="st35" d="M742.4,1284.6c-0.3,0.4-0.7,0.8-1,1.3l-1.3-1.3H742.4z"/>
	<path class="st35" d="M780.5,1250.1l35.5,35.5c-45.9,54-114.2,88.2-190.6,88.2c-138.1,0-250-111.9-250-250s111.9-250,250-250
		c77,0,145.9,34.8,191.8,89.6l-35.4,35.4l-0.1,0.1c0,0-0.1-0.1-0.1-0.1c-36.7-45.7-93-75-156.1-75c-110.5,0-200,89.5-200,200
		c0,110.5,89.5,200,200,200C687.9,1323.9,743.8,1295.1,780.5,1250.1z"/>
	<path class="st35" d="M742.4,1284.6c-0.3,0.4-0.7,0.8-1,1.3l-1.3-1.3H742.4z"/>
	<path class="st35" d="M742.4,1034.6h0.2l-0.1,0.1C742.4,1034.7,742.4,1034.6,742.4,1034.6z"/>
	<path class="st35" d="M742.4,1284.6c-0.3,0.4-0.7,0.8-1,1.3l-1.3-1.3H742.4z"/>
	<path class="st35" d="M1479.2,1298.8c-0.6,0.6-1.2,1.2-1.8,1.8c-97.6,97.6-255.9,97.6-353.5,0c-97.6-97.6-97.6-255.9,0-353.6
		c0.6-0.6,1.2-1.2,1.8-1.8l35.3,35.3c-0.6,0.6-1.2,1.2-1.8,1.8c-78.1,78.1-78.1,204.7,0,282.8c78.1,78.1,204.7,78.1,282.9,0
		c0.6-0.6,1.2-1.2,1.8-1.8L1479.2,1298.8z"/>
	<path class="st35" d="M1595.4,746.9c0,82.8-67.2,150-150,150v-50c55.2,0,100-44.8,100-100s-44.8-100-100-100h-345.1l57.5,123.3
		l23.3,50l148.4,318.2l-45.3,21.1L1126,820.2H704.5v-50h398.2l-57.5-123.3l-23.3-50h423.5c44.4,0,84.3,19.3,111.8,50
		C1581,673.5,1595.4,708.5,1595.4,746.9z"/>
</g>
</svg>
